<svg width="25" height="25" viewBox="0 0 25 25" fill="none" xmlns="http://www.w3.org/2000/svg">
<rect width="25" height="25" rx="4.14562" fill="white" fill-opacity="0.5"/>
<path fill-rule="evenodd" clip-rule="evenodd" d="M12.3923 20.2524C10.5743 19.1335 8.88299 17.8166 7.34873 16.3254C6.27007 15.2514 5.44889 13.9421 4.94811 12.4979C4.04693 9.69614 5.09956 6.48871 8.04544 5.53949C9.59367 5.04107 11.2846 5.32594 12.5892 6.30499C13.8943 5.32713 15.5846 5.04236 17.133 5.53949C20.0788 6.48871 21.139 9.69614 20.2379 12.4979C19.7371 13.9421 18.9159 15.2514 17.8372 16.3254C16.303 17.8166 14.6117 19.1335 12.7937 20.2524L12.5968 20.3748L12.3923 20.2524Z" fill="#174261" stroke="#174261" stroke-width="1.25" stroke-linecap="round" stroke-linejoin="round"/>
<path fill-rule="evenodd" clip-rule="evenodd" d="M15.7244 8.69333C16.6166 8.97835 17.2506 9.7794 17.3298 10.7219L15.7244 8.69333Z" fill="white"/>
<path d="M15.7244 8.69333C16.6166 8.97835 17.2506 9.7794 17.3298 10.7219" stroke="#174261" stroke-width="1.25" stroke-linecap="round" stroke-linejoin="round"/>
</svg>
