<svg width="145" height="47" viewBox="0 0 145 47" fill="none" xmlns="http://www.w3.org/2000/svg">
<path d="M9.31077 46.3977C8.93609 46.3977 8.57051 46.393 8.19878 46.3847C7.42877 46.3749 6.66054 46.3088 5.90042 46.187C5.19164 46.0665 4.50503 45.8425 3.86323 45.5223C3.2273 45.2047 2.64728 44.7884 2.14539 44.2891C1.6362 43.7958 1.21227 43.2236 0.8904 42.5952C0.565018 41.9627 0.339834 41.2847 0.222692 40.585C0.0962308 39.833 0.0278289 39.0727 0.0180761 38.3106C0.0102062 38.0547 0 37.2031 0 37.2031V9.18175C0 9.18175 0.010821 8.34307 0.0180761 8.09659C0.0274455 7.33568 0.0954782 6.57657 0.221585 5.82584C0.338959 5.12413 0.564333 4.44424 0.889908 3.8097C1.21054 3.18172 1.63206 2.60906 2.13814 2.11391C2.64368 1.61406 3.22558 1.19554 3.86262 0.873609C4.50296 0.554464 5.18828 0.332062 5.89562 0.213853C6.65826 0.090879 7.42916 0.0244223 8.20186 0.0150413L9.31138 0H135.682L136.805 0.0154052C137.571 0.0243788 138.335 0.0903108 139.09 0.21264C139.805 0.332365 140.497 0.556356 141.145 0.877248C142.421 1.52601 143.46 2.55242 144.115 3.81261C144.435 4.4428 144.657 5.11718 144.773 5.81286C144.9 6.56973 144.972 7.33479 144.986 8.10193C144.99 8.44545 144.99 8.81445 144.99 9.18175C145 9.63662 145 10.0695 145 10.5061V35.8927C145 36.3334 145 36.7634 144.99 37.1969C144.99 37.5914 144.99 37.9527 144.985 38.3246C144.971 39.0781 144.901 39.8296 144.775 40.573C144.66 41.2778 144.436 41.961 144.111 42.5987C143.787 43.2202 143.365 43.7875 142.862 44.2795C142.36 44.7815 141.779 45.2003 141.141 45.5198C140.496 45.8425 139.804 46.0673 139.09 46.1868C138.33 46.3092 137.562 46.3754 136.792 46.3846C136.424 46.3931 136.056 46.3974 135.688 46.3976L134.355 46.4L9.31077 46.3977Z" fill="black"/>
</svg>
