<svg width="117" height="27" viewBox="0 0 117 27" fill="none" xmlns="http://www.w3.org/2000/svg">
<g clip-path="url(#clip0_0_155)">
<path d="M18.5792 17.5468C21.7722 15.8168 24.1931 14.4988 24.4017 14.3964C25.069 14.0461 25.7584 13.1192 24.4017 12.3993C23.9637 12.1729 21.6052 10.8957 18.5792 9.24895L14.3846 13.4285L18.579 17.5468H18.5792Z" fill="#FFD900"/>
<path d="M14.3908 13.4279L1.03419 26.7096C1.34748 26.7506 1.70145 26.6686 2.11894 26.4422C2.99506 25.9692 12.2823 20.9649 18.5856 17.5471L14.3908 13.4279Z" fill="#F43249"/>
<path d="M14.3663 13.4283L18.5606 9.26902C18.5606 9.26902 3.03387 0.908716 2.09423 0.415408C1.74072 0.207984 1.34402 0.146659 0.98914 0.207984L14.3663 13.4281V13.4283Z" fill="#00EE76"/>
<path d="M14.3792 13.4302L1.0018 0.21007C0.458854 0.333848 0 0.807089 0 1.77454V25.1467C0 26.0327 0.355109 26.6708 1.02237 26.7321L14.3789 13.4299L14.3792 13.4302Z" fill="#00D3FF"/>
<path d="M58.0143 9.64718C55.6145 9.64718 53.6316 11.4795 53.6316 13.9918C53.6316 16.4836 55.5937 18.3364 58.0146 18.3364C60.4352 18.3364 62.397 16.5041 62.397 13.9918C62.397 11.4795 60.4352 9.64718 58.0143 9.64718ZM58.0143 16.6076C56.6992 16.6076 55.5521 15.5159 55.5521 13.9724C55.5521 12.4075 56.7001 11.3372 58.0143 11.3372C59.3285 11.3372 60.4766 12.4075 60.4766 13.9724C60.4766 15.5159 59.3285 16.6076 58.0143 16.6076ZM48.4768 9.64718C46.0559 9.64718 44.0938 11.4795 44.0938 13.9918C44.0938 16.4836 46.0559 18.3364 48.4768 18.3364C50.8974 18.3364 52.8595 16.5041 52.8595 13.9918C52.8595 11.4795 50.8974 9.64718 48.4765 9.64718H48.4768ZM48.4768 16.6076C47.1614 16.6076 46.0145 15.5159 46.0145 13.9724C46.0145 12.4075 47.1626 11.3372 48.4768 11.3372C49.7919 11.3372 50.939 12.4075 50.939 13.9724C50.939 15.5159 49.8115 16.6076 48.4768 16.6076ZM37.1442 10.9857V12.8181H41.5683C41.4426 13.8475 41.0889 14.6094 40.5667 15.1245C39.92 15.7626 38.9182 16.4631 37.1442 16.4631C34.4098 16.4631 32.3027 14.2806 32.3027 11.583C32.3027 8.88535 34.4109 6.66162 37.1442 6.66162C38.6255 6.66162 39.6906 7.23835 40.4835 7.97989L41.7977 6.68214C40.6912 5.63239 39.21 4.82953 37.1442 4.82953C33.408 4.82953 30.2773 7.85589 30.2773 11.542C30.2773 15.2282 33.408 18.2546 37.1442 18.2546C39.1684 18.2546 40.6716 17.596 41.8818 16.3598C43.1131 15.145 43.4887 13.4356 43.4887 12.0562C43.4887 11.624 43.4474 11.2326 43.3841 10.903L37.1442 10.9857ZM83.5176 12.4064C83.1625 11.4385 82.0361 9.64718 79.7814 9.64718C77.5268 9.64718 75.6697 11.3977 75.6697 13.9918C75.6697 16.4212 77.5268 18.3364 79.9902 18.3364C81.9936 18.3364 83.1417 17.1217 83.6213 16.4212L82.1401 15.433C81.6387 16.154 80.9712 16.627 79.9902 16.627C79.0092 16.627 78.3209 16.1948 77.8819 15.309L83.7045 12.9001L83.5176 12.4064ZM77.5901 13.8689C77.5488 12.2005 78.9055 11.3361 79.8645 11.3361C80.6369 11.3361 81.2631 11.7068 81.4923 12.263L77.5901 13.8689ZM72.8525 18.0485H74.773V5.32306H72.8525V18.0485ZM69.7228 10.6151H69.6604C69.2223 10.0999 68.4086 9.64718 67.3643 9.64718C65.1728 9.64718 63.1902 11.5625 63.1902 13.9918C63.1902 16.4212 65.1936 18.3162 67.3643 18.3162C68.4075 18.3162 69.2214 17.8632 69.6604 17.3275H69.7228V17.9453C69.7228 19.6137 68.8247 20.4984 67.3851 20.4984C66.2162 20.4984 65.4854 19.6545 65.1936 18.954L63.5245 19.6545C64.004 20.8077 65.2777 22.2284 67.3851 22.2284C69.6387 22.2284 71.5383 20.9103 71.5383 17.7189V9.91457H69.7228V10.6151ZM67.5313 16.6076C66.2162 16.6076 65.1107 15.5159 65.1107 13.9929C65.1107 12.47 66.2171 11.3575 67.5313 11.3575C68.8259 11.3575 69.869 12.47 69.869 13.9929C69.8681 15.4954 68.8247 16.6076 67.5313 16.6076ZM92.4708 5.32328H87.8795V18.0485H89.7999V13.2298H92.4708C94.5999 13.2298 96.6865 11.7056 96.6865 9.27652C96.6865 6.84718 94.5999 5.32306 92.4708 5.32306V5.32328ZM92.533 11.4601H89.8196V7.09383H92.533C93.9521 7.09383 94.7868 8.26758 94.7868 9.27629C94.767 10.2647 93.9532 11.4601 92.533 11.4601ZM104.346 9.62666C102.969 9.62666 101.529 10.2239 100.944 11.583L102.635 12.2835C103.011 11.583 103.679 11.3566 104.389 11.3566C105.391 11.3566 106.392 11.9536 106.413 13.0034V13.1274C106.058 12.9215 105.328 12.6327 104.41 12.6327C102.573 12.6327 100.715 13.6417 100.715 15.4954C100.715 17.2046 102.218 18.2956 103.887 18.2956C105.182 18.2956 105.891 17.7189 106.329 17.0398H106.391V18.0282H108.248V13.1477C108.228 10.9037 106.538 9.62644 104.346 9.62644V9.62666ZM104.117 16.5871C103.491 16.5871 102.614 16.2778 102.614 15.5168C102.614 14.5284 103.698 14.1578 104.638 14.1578C105.472 14.1578 105.869 14.3431 106.391 14.59C106.245 15.7637 105.222 16.5871 104.117 16.5871ZM114.948 9.9157L112.757 15.4133H112.694L110.42 9.91548H108.354L111.777 17.6163L109.835 21.9202H111.839L117.077 9.91548H114.948L114.948 9.9157ZM97.7514 18.0485H99.6718V5.32306H97.7514V18.0485Z" fill="white"/>
</g>
<defs>
<clipPath id="clip0_0_155">
<rect width="116.667" height="26.0746" fill="white" transform="scale(1.00285)"/>
</clipPath>
</defs>
</svg>
