<svg width="168" height="111" viewBox="0 0 168 111" fill="none" xmlns="http://www.w3.org/2000/svg">
<path d="M158.59 110.304C158.59 110.304 165.144 96.5934 164.901 74.2084C164.658 51.8234 153.006 30.8375 138.684 24.9614C124.361 19.0854 111.738 26.6403 94.7447 27.4797C77.7518 28.3192 67.7988 3.69569 43.5232 15.4478C19.2476 27.1999 19.2476 50.984 23.3745 62.4563C27.5013 73.9286 35.2695 79.5248 26.7731 87.6394C18.2766 95.7539 10.0229 100.791 7.59536 103.868C6.16028 105.652 5.22908 107.897 4.92505 110.304H158.59Z" fill="#0B71BB"/>
<path opacity="0.7" d="M158.59 110.304C158.59 110.304 165.144 96.5934 164.901 74.2084C164.658 51.8234 153.006 30.8375 138.684 24.9614C124.361 19.0854 111.738 26.6403 94.7447 27.4797C77.7518 28.3192 67.7988 3.69569 43.5232 15.4478C19.2476 27.1999 19.2476 50.984 23.3745 62.4563C27.5013 73.9286 35.2695 79.5248 26.7731 87.6394C18.2766 95.7539 10.0229 100.791 7.59536 103.868C6.16028 105.652 5.22908 107.897 4.92505 110.304H158.59Z" fill="white"/>
<g opacity="0.2">
<path d="M51.7774 11.5631C50.6025 11.5642 49.4542 11.9667 48.4777 12.7198C47.5011 13.4729 46.7402 14.5427 46.291 15.7942C45.8418 17.0456 45.7246 18.4224 45.954 19.7506C46.1835 21.0788 46.7494 22.2988 47.5802 23.2564C48.411 24.214 49.4694 24.8663 50.6217 25.1308C51.774 25.3953 52.9685 25.2601 54.0542 24.7423C55.1399 24.2246 56.068 23.3475 56.7214 22.2219C57.3747 21.0963 57.724 19.7728 57.7249 18.4185C57.7249 16.6003 57.0983 14.8566 55.9829 13.571C54.8676 12.2853 53.3548 11.5631 51.7774 11.5631ZM52.3819 22.5961V23.2564H51.3744V22.5961C50.4884 22.3918 50.0417 21.6027 50.0417 20.3772V19.7588H51.2069V20.4667C51.2069 21.1131 51.4497 21.3453 51.8454 21.3453C52.2411 21.3453 52.4838 21.1131 52.4838 20.4667C52.4838 18.6087 50.0757 18.508 50.0757 15.9365C50.0757 14.7221 50.5126 13.9499 51.3744 13.7288V13.0573H52.3819V13.7288C53.2558 13.9359 53.7025 14.711 53.7025 15.9365V16.2163H52.5397V15.847C52.5397 15.2006 52.3139 14.9544 51.9231 14.9544C51.5322 14.9544 51.3065 15.2006 51.3065 15.847C51.3065 17.7049 53.7146 17.8057 53.7146 20.3772C53.7194 21.6027 53.2606 22.3918 52.3867 22.5961H52.3819Z" stroke="black" stroke-width="1.10658" stroke-linecap="round" stroke-linejoin="round"/>
<path d="M51.7768 8.80966C50.1293 8.80911 48.5186 9.37176 47.1485 10.4265C45.7785 11.4811 44.7106 12.9805 44.0799 14.7348C43.4492 16.4892 43.284 18.4197 43.6053 20.2823C43.9266 22.1448 44.7199 23.8557 45.8849 25.1985C47.0499 26.5413 48.5342 27.4557 50.15 27.8261C51.7659 28.1964 53.4408 28.0061 54.9628 27.2791C56.4848 26.5521 57.7856 25.3212 58.7006 23.742C59.6156 22.1628 60.1038 20.3062 60.1033 18.4072C60.1033 15.8618 59.226 13.4206 57.6645 11.6207C56.103 9.82083 53.9851 8.80966 51.7768 8.80966ZM51.7768 26.2924C50.4237 26.2912 49.1013 25.8276 47.9768 24.9602C46.8523 24.0927 45.9762 22.8603 45.4594 21.4189C44.9426 19.9775 44.8083 18.3918 45.0733 16.8624C45.3384 15.333 45.9911 13.9285 46.9487 12.8267C47.9063 11.7248 49.126 10.975 50.4533 10.6722C51.7806 10.3694 53.1561 10.527 54.4057 11.1253C55.6553 11.7235 56.7229 12.7355 57.4735 14.0332C58.2241 15.3309 58.6239 16.856 58.6225 18.4156C58.6186 20.5057 57.8958 22.5087 56.6124 23.9853C55.3291 25.462 53.5901 26.2916 51.7768 26.2924Z" stroke="black" stroke-width="1.10658" stroke-linecap="round" stroke-linejoin="round"/>
</g>
<g opacity="0.2">
<path d="M101.275 12.7998C100.415 12.7998 99.5748 13.0937 98.8598 13.6444C98.1449 14.1951 97.5876 14.9777 97.2585 15.8935C96.9295 16.8092 96.8434 17.8168 97.0111 18.7889C97.1789 19.7611 97.593 20.654 98.201 21.3549C98.809 22.0557 99.5837 22.533 100.427 22.7264C101.271 22.9198 102.145 22.8205 102.939 22.4412C103.734 22.0619 104.413 21.4196 104.89 20.5955C105.368 19.7713 105.623 18.8024 105.623 17.8113C105.622 16.4826 105.163 15.2088 104.348 14.2693C103.533 13.3298 102.428 12.8013 101.275 12.7998ZM101.717 20.8752V21.3565H100.989V20.8752C100.341 20.7241 100.018 20.1477 100.018 19.2495V18.7962H100.87V19.3167C100.87 19.7895 101.052 19.9574 101.338 19.9574C101.625 19.9574 101.805 19.7895 101.805 19.3167C101.805 17.9568 100.042 17.8896 100.042 16.0009C100.042 15.1139 100.363 14.5458 100.994 14.3864V13.8939H101.722V14.3864C102.36 14.5375 102.693 15.1027 102.693 16.0009V16.2079H101.841V15.9281C101.841 15.458 101.678 15.2762 101.389 15.2762C101.101 15.2762 100.94 15.458 100.94 15.9281C100.94 17.288 102.703 17.3552 102.703 19.2439C102.693 20.1477 102.356 20.7241 101.717 20.8752Z" stroke="black" stroke-width="1.10658" stroke-linecap="round" stroke-linejoin="round"/>
<path d="M101.275 10.7875C100.07 10.7875 98.8921 11.1994 97.89 11.9712C96.888 12.7429 96.107 13.8398 95.6459 15.1231C95.1847 16.4065 95.064 17.8186 95.2991 19.181C95.5342 20.5434 96.1146 21.7948 96.9667 22.777C97.8188 23.7593 98.9045 24.4282 100.087 24.6992C101.268 24.9702 102.494 24.8311 103.607 24.2995C104.72 23.7679 105.672 22.8677 106.342 21.7128C107.011 20.5578 107.368 19.1999 107.368 17.8108C107.368 15.9481 106.726 14.1617 105.584 12.8446C104.441 11.5275 102.891 10.7875 101.275 10.7875ZM101.275 23.5806C100.285 23.5806 99.3174 23.2422 98.4943 22.6082C97.6711 21.9742 97.0295 21.0731 96.6506 20.0188C96.2718 18.9645 96.1726 17.8044 96.3658 16.6852C96.5589 15.566 97.0357 14.5379 97.7357 13.731C98.4358 12.9241 99.3277 12.3746 100.299 12.152C101.27 11.9293 102.276 12.0436 103.191 12.4803C104.105 12.917 104.887 13.6565 105.437 14.6053C105.987 15.5542 106.281 16.6697 106.281 17.8108C106.28 19.3406 105.752 20.8073 104.813 21.889C103.875 22.9707 102.602 23.5791 101.275 23.5806Z" stroke="black" stroke-width="1.10658" stroke-linecap="round" stroke-linejoin="round"/>
</g>
<g opacity="0.2">
<path d="M10.4765 57.2318C9.61657 57.2318 8.77598 57.5257 8.06099 58.0764C7.34601 58.6271 6.78875 59.4098 6.45967 60.3255C6.1306 61.2412 6.0445 62.2488 6.21226 63.221C6.38002 64.1931 6.79411 65.086 7.40215 65.7869C8.01019 66.4878 8.78489 66.965 9.62827 67.1584C10.4717 67.3518 11.3458 67.2525 12.1403 66.8732C12.9347 66.4939 13.6138 65.8516 14.0915 65.0275C14.5692 64.2033 14.8242 63.2344 14.8242 62.2433C14.8229 60.9146 14.3645 59.6408 13.5494 58.7013C12.7343 57.7618 11.6292 57.2333 10.4765 57.2318ZM10.9183 65.3072V65.7885H10.19V65.3072C9.54187 65.1561 9.219 64.5797 9.219 63.6815V63.2282H10.0711V63.7487C10.0711 64.2215 10.2507 64.3922 10.5396 64.3922C10.8285 64.3922 10.9911 64.2215 10.9911 63.7487C10.9911 62.3888 9.22871 62.3216 9.22871 60.4329C9.22871 59.5459 9.54915 58.9779 10.1803 58.8184V58.3259H10.9086V58.8184C11.547 58.9695 11.8796 59.5347 11.8796 60.4329V60.6399H11.0324V60.3601C11.0324 59.89 10.8673 59.711 10.5809 59.711C10.2944 59.711 10.1318 59.89 10.1318 60.3601C10.1318 61.7228 11.8917 61.7872 11.8917 63.6759C11.8917 64.5881 11.5567 65.1477 10.9183 65.3072Z" stroke="black" stroke-width="1.10658" stroke-linecap="round" stroke-linejoin="round"/>
<path d="M10.4776 55.2166C9.27269 55.2177 8.09512 55.6306 7.09374 56.403C6.09236 57.1754 5.31214 58.2726 4.85171 59.5561C4.39128 60.8395 4.2713 62.2515 4.50696 63.6135C4.74261 64.9755 5.32331 66.2264 6.17565 67.2081C7.02799 68.1898 8.1137 68.8581 9.29552 69.1287C10.4773 69.3992 11.7022 69.2598 12.8153 68.728C13.9284 68.1963 14.8798 67.2961 15.5491 66.1413C16.2184 64.9864 16.5756 63.6287 16.5756 62.2399C16.5753 61.3172 16.4173 60.4037 16.1107 59.5513C15.8041 58.699 15.3548 57.9247 14.7886 57.2725C14.2223 56.6204 13.5501 56.1031 12.8105 55.7504C12.0708 55.3976 11.2781 55.2162 10.4776 55.2166ZM10.4776 68.0096C9.48758 68.0096 8.5198 67.6712 7.69663 67.0373C6.87345 66.4033 6.23187 65.5022 5.85301 64.4479C5.47414 63.3936 5.37502 62.2335 5.56816 61.1143C5.7613 59.9951 6.23804 58.967 6.93809 58.1601C7.63814 57.3532 8.53006 56.8037 9.50105 56.581C10.472 56.3584 11.4785 56.4727 12.3932 56.9094C13.3078 57.3461 14.0896 58.0856 14.6396 59.0344C15.1897 59.9832 15.4832 61.0988 15.4832 62.2399C15.4819 63.7697 14.9542 65.2364 14.0157 66.3181C13.0772 67.3998 11.8048 68.0082 10.4776 68.0096Z" stroke="black" stroke-width="1.10658" stroke-linecap="round" stroke-linejoin="round"/>
</g>
<g opacity="0.2">
<path d="M158.451 51.6578C157.591 51.6578 156.751 51.9517 156.036 52.5024C155.321 53.0531 154.763 53.8357 154.434 54.7515C154.105 55.6672 154.019 56.6748 154.187 57.6469C154.355 58.6191 154.769 59.512 155.377 60.2129C155.985 60.9137 156.759 61.391 157.603 61.5844C158.446 61.7778 159.32 61.6785 160.115 61.2992C160.909 60.9199 161.588 60.2776 162.066 59.4535C162.544 58.6293 162.799 57.6604 162.799 56.6693C162.798 55.3406 162.339 54.0668 161.524 53.1273C160.709 52.1878 159.604 51.6593 158.451 51.6578ZM158.893 59.7332V60.2145H158.165V59.7332C157.519 59.5821 157.194 59.0057 157.194 58.1075V57.6542H158.046V58.1746C158.046 58.6447 158.225 58.8154 158.512 58.8154C158.798 58.8154 158.978 58.6447 158.978 58.1746C158.978 56.812 157.218 56.7476 157.218 54.8589C157.218 53.9691 157.536 53.4038 158.167 53.2416V52.7519H158.895V53.2416C159.534 53.3927 159.866 53.9607 159.866 54.8589V55.0715H159.014V54.7917C159.014 54.3188 158.852 54.1398 158.565 54.1398C158.279 54.1398 158.106 54.3188 158.106 54.7917C158.106 56.1516 159.869 56.2188 159.869 58.1075C159.869 59.0057 159.531 59.5821 158.893 59.7332Z" stroke="black" stroke-width="1.10658" stroke-linecap="round" stroke-linejoin="round"/>
<path d="M158.451 49.6455C157.246 49.6455 156.068 50.0575 155.066 50.8292C154.064 51.6009 153.283 52.6978 152.822 53.9811C152.36 55.2645 152.24 56.6766 152.475 58.039C152.71 59.4014 153.29 60.6528 154.142 61.6351C154.995 62.6173 156.08 63.2862 157.262 63.5572C158.444 63.8282 159.669 63.6891 160.783 63.1575C161.896 62.6259 162.848 61.7257 163.517 60.5708C164.187 59.4158 164.544 58.0579 164.544 56.6688C164.544 55.7465 164.386 54.8332 164.08 53.9811C163.774 53.129 163.325 52.3548 162.759 51.7026C162.194 51.0504 161.522 50.5331 160.783 50.1802C160.043 49.8272 159.251 49.6455 158.451 49.6455ZM158.451 62.4386C157.46 62.4408 156.492 62.1043 155.667 61.4716C154.843 60.839 154.2 59.9387 153.819 58.8846C153.439 57.8305 153.339 56.67 153.531 55.5501C153.723 54.4301 154.199 53.401 154.898 52.593C155.598 51.785 156.49 51.2343 157.461 51.0108C158.432 50.7873 159.439 50.9009 160.355 51.3372C161.27 51.7736 162.052 52.5131 162.603 53.4622C163.153 54.4113 163.447 55.5272 163.447 56.6688C163.446 58.1967 162.919 59.6617 161.983 60.7431C161.046 61.8245 159.776 62.4341 158.451 62.4386Z" stroke="black" stroke-width="1.10658" stroke-linecap="round" stroke-linejoin="round"/>
</g>
<path d="M0.55407 110.446H162.229" stroke="#263238" stroke-width="1.10658" stroke-linecap="round" stroke-linejoin="round"/>
<path d="M10.1839 85.8505C10.9121 86.2114 12.6575 86.1639 12.66 86.1639C12.6624 86.1639 12.2813 84.8404 12.2473 84.7648C11.8637 83.8358 10.6451 82.3025 9.65223 82.4564C9.48841 82.4875 9.3321 82.5581 9.19345 82.6634C9.05479 82.7687 8.93689 82.9064 8.84739 83.0676C8.75789 83.2288 8.6988 83.4099 8.67393 83.5991C8.64906 83.7884 8.65899 83.9815 8.70306 84.166C8.86813 84.9383 9.57212 85.5259 10.1839 85.8505Z" fill="#0B71BB"/>
<path d="M10.7934 91.695C11.5362 91.8181 13.1044 91.2949 13.221 91.2529C13.4791 92.2864 13.797 93.2988 14.1726 94.2833C14.3862 94.8597 14.6192 95.4305 14.8596 96.0013C14.7163 95.7607 14.5877 95.5452 14.5658 95.5173C13.9808 94.7394 12.4563 93.6285 11.5338 94.0818C11.3828 94.1614 11.2481 94.2767 11.1383 94.4203C11.0286 94.5638 10.9463 94.7325 10.8968 94.9151C10.8473 95.0978 10.8318 95.2904 10.8512 95.4804C10.8706 95.6705 10.9245 95.8537 11.0095 96.0181C11.3493 96.7316 12.165 97.0842 12.8253 97.1961C13.4856 97.3081 14.8377 96.8939 15.1921 96.7764L15.4737 97.4312C15.9277 98.4721 16.3841 99.5074 16.804 100.543C16.9521 100.906 17.0881 101.27 17.224 101.634C17.0953 101.421 16.9812 101.242 16.9812 101.217C16.3962 100.436 14.8693 99.3283 13.9492 99.7788C13.7976 99.8579 13.662 99.9729 13.5515 100.116C13.441 100.26 13.3579 100.429 13.3078 100.612C13.2576 100.794 13.2415 100.988 13.2604 101.178C13.2793 101.369 13.3329 101.553 13.4176 101.718C13.7574 102.431 14.5707 102.784 15.231 102.896C15.8913 103.008 17.1148 102.63 17.5372 102.496C17.6658 102.874 17.7945 103.254 17.9061 103.615C17.9765 103.872 18.0591 104.113 18.1173 104.376C18.1756 104.639 18.2436 104.888 18.3043 105.143C18.4062 105.635 18.5155 106.142 18.6053 106.626C18.6684 106.962 18.7242 107.283 18.7825 107.605C18.6393 107.241 18.3431 106.536 18.3116 106.486C17.826 105.613 16.4739 104.247 15.5053 104.527C15.3455 104.58 15.197 104.67 15.0695 104.793C14.942 104.916 14.8384 105.068 14.7654 105.24C14.6923 105.413 14.6515 105.6 14.6456 105.792C14.6396 105.983 14.6687 106.174 14.7309 106.352C14.9737 107.115 15.7335 107.608 16.3695 107.832C17.0735 108.081 18.6271 107.854 18.8213 107.832C18.916 108.369 19.001 108.89 19.0641 109.385C19.1199 109.751 19.1709 110.101 19.217 110.44H19.8409C19.7827 110.062 19.7171 109.67 19.6467 109.259C19.5545 108.713 19.4452 108.14 19.3287 107.541C19.7972 107.325 20.2544 107.077 20.6978 106.799C21.2101 107.44 22.5209 108.198 22.6909 108.282C22.5137 108.789 22.334 109.278 22.1592 109.737C22.0694 109.981 21.9796 110.21 21.8898 110.44H22.5501L22.7054 110.003C22.8899 109.491 23.0768 108.937 23.2638 108.369C23.4507 108.414 24.9922 108.775 25.7083 108.587C26.3589 108.419 27.1479 107.994 27.4392 107.253C27.5123 107.081 27.5534 106.893 27.5598 106.702C27.5661 106.511 27.5376 106.32 27.4761 106.142C27.4145 105.965 27.3213 105.804 27.2025 105.67C27.0837 105.537 26.9418 105.433 26.7862 105.367C25.837 105 24.3902 106.24 23.8731 107.068C23.8415 107.118 23.5526 107.692 23.3754 108.058C23.4507 107.823 23.5259 107.6 23.6012 107.359C23.7541 106.883 23.8925 106.402 24.043 105.887C24.1086 105.635 24.1741 105.381 24.2421 105.126C24.31 104.871 24.3586 104.594 24.4193 104.326C24.548 103.702 24.662 103.061 24.7446 102.415C25.1063 102.566 26.3977 103.083 27.0653 103.03C27.7329 102.977 28.5656 102.694 28.9515 102.012C29.0472 101.855 29.113 101.677 29.1448 101.489C29.1766 101.3 29.1737 101.107 29.1361 100.92C29.0985 100.733 29.0272 100.558 28.9268 100.405C28.8264 100.252 28.6992 100.126 28.5534 100.033C27.6649 99.5046 26.07 100.481 25.4389 101.206C25.3976 101.251 24.9946 101.833 24.7786 102.154C24.832 101.765 24.8854 101.377 24.9291 100.982C25.0529 99.8376 25.1451 98.6763 25.2447 97.5179C25.2738 97.1626 25.3078 96.81 25.3393 96.4574C25.468 96.5106 26.9901 97.1654 27.7402 97.1038C28.4053 97.0506 29.2404 96.768 29.624 96.0853C29.7196 95.9287 29.7854 95.7507 29.8172 95.5628C29.849 95.3749 29.846 95.1813 29.8084 94.9949C29.7708 94.8084 29.6995 94.6332 29.5991 94.4806C29.4987 94.3281 29.3715 94.2018 29.2259 94.1098C28.3374 93.581 26.7449 94.5547 26.1113 95.2794C26.0627 95.3354 25.4826 96.172 25.3442 96.3987C25.417 95.6208 25.4947 94.8457 25.5869 94.0846C25.7215 93.0564 25.9145 92.0394 26.1647 91.0403C26.223 91.0654 27.8106 91.7566 28.5777 91.695C29.2428 91.6391 30.0779 91.3592 30.4639 90.6765C30.5592 90.5196 30.6247 90.3413 30.6563 90.1533C30.6879 89.9653 30.6848 89.7717 30.6473 89.5851C30.6097 89.3985 30.5386 89.2232 30.4384 89.0704C30.3382 88.9176 30.2113 88.7908 30.0658 88.6982C29.1749 88.1694 27.5824 89.1431 26.9488 89.8706C26.9003 89.9266 26.2764 90.8276 26.1744 90.9899C26.189 90.9311 26.1987 90.8696 26.2133 90.8136C26.4869 89.8189 26.8371 88.8544 27.2595 87.9315C27.4877 87.4195 27.7305 86.9438 27.9878 86.4849C28.2718 86.65 29.5754 87.3803 30.2721 87.4111C30.9688 87.4419 31.7942 87.2684 32.2433 86.6388C32.3531 86.4949 32.4354 86.3261 32.4848 86.1431C32.5343 85.9602 32.5498 85.7673 32.5303 85.5771C32.5109 85.3868 32.4569 85.2034 32.3719 85.0387C32.2869 84.874 32.1728 84.7318 32.037 84.6214C31.2019 83.9834 29.5269 84.7501 28.8277 85.3936C28.7889 85.4272 28.4369 85.833 28.1844 86.1296C28.2985 85.9253 28.4102 85.7126 28.5219 85.5196C28.9418 84.7948 29.3642 84.1569 29.7356 83.6C29.9541 83.2839 30.1556 83.0012 30.345 82.741C30.697 82.741 32.1122 82.6851 32.7313 82.3493C33.3503 82.0135 34.0251 81.4147 34.1732 80.6172C34.2129 80.4313 34.2181 80.2379 34.1887 80.0494C34.1593 79.861 34.0958 79.6818 34.0024 79.5235C33.909 79.3652 33.7878 79.2313 33.6466 79.1305C33.5054 79.0297 33.3474 78.9642 33.1828 78.9384C32.1875 78.8125 30.998 80.385 30.6436 81.3252C30.612 81.4063 30.2454 82.7438 30.2648 82.7438H30.2867C30.0974 82.9929 29.8983 83.2587 29.6847 83.5553C29.2963 84.1149 28.8617 84.7333 28.4272 85.4496C27.9538 86.219 27.5185 87.0187 27.1236 87.8448C26.6781 88.769 26.3052 89.7373 26.0093 90.7381C26.0104 90.7502 26.0104 90.7623 26.0093 90.7744C26.0093 90.4359 26.0093 89.4901 25.9948 89.4174C25.8782 88.3988 25.1378 86.5017 24.1523 86.2918C23.988 86.2621 23.8202 86.2727 23.6598 86.3228C23.4994 86.3729 23.3499 86.4614 23.2211 86.5826C23.0924 86.7038 22.9873 86.855 22.9126 87.0262C22.838 87.1974 22.7955 87.3848 22.788 87.5762C22.7297 88.3876 23.2395 89.1991 23.7371 89.7112C24.2979 90.2904 25.8564 90.85 25.9802 90.892C25.7018 91.9189 25.482 92.9658 25.3223 94.0259C25.2277 94.6414 25.1476 95.2682 25.0796 95.895C25.0796 95.6012 25.0796 95.3354 25.0674 95.3046C24.9509 94.2833 24.2081 92.389 23.2249 92.1791C23.0607 92.1494 22.8929 92.1599 22.7325 92.21C22.572 92.2602 22.4226 92.3487 22.2938 92.4699C22.1651 92.5911 22.0599 92.7422 21.9853 92.9134C21.9107 93.0846 21.8682 93.272 21.8606 93.4634C21.8024 94.2721 22.3122 95.0864 22.8098 95.5984C23.3075 96.1105 24.6353 96.6253 24.9946 96.754C24.9703 96.9947 24.9412 97.2353 24.9169 97.4759C24.7956 98.6344 24.6742 99.79 24.5382 100.918C24.4873 101.318 24.4266 101.707 24.3635 102.096C24.3635 101.838 24.3635 101.617 24.3635 101.586C24.2494 100.565 23.5065 98.668 22.5234 98.4581C22.3592 98.4288 22.1915 98.4397 22.0313 98.49C21.871 98.5403 21.7217 98.6288 21.593 98.75C21.4644 98.8711 21.3592 99.022 21.2845 99.193C21.2097 99.364 21.167 99.5512 21.1591 99.7424C21.1008 100.554 21.6106 101.365 22.1083 101.877C22.6059 102.389 23.8075 102.857 24.2202 103.011C24.1474 103.408 24.0746 103.808 23.9775 104.189C23.9119 104.446 23.8658 104.701 23.7905 104.958C23.7153 105.216 23.6473 105.465 23.5769 105.716C23.4264 106.192 23.2759 106.685 23.1181 107.143C23.0113 107.465 22.9045 107.77 22.7977 108.075C22.8511 107.681 22.9433 106.903 22.9458 106.836C22.9327 105.93 22.7206 105.044 22.3292 104.259C22.332 104.157 22.3263 104.056 22.3122 103.956C22.2916 103.765 22.2362 103.581 22.1495 103.417C22.0628 103.252 21.9468 103.11 21.8092 103.001C21.6716 102.892 21.5154 102.818 21.3511 102.783C21.1867 102.749 21.0178 102.755 20.8556 102.801C19.8846 103.097 19.2753 105.039 19.2292 106.08C19.2292 106.142 19.2607 106.802 19.2874 107.222C19.2389 106.978 19.1952 106.743 19.1418 106.494C19.0398 106.002 18.9281 105.512 18.8068 104.986C18.7412 104.734 18.6733 104.48 18.6053 104.225C18.5373 103.97 18.4499 103.707 18.3625 103.444C18.1708 102.843 17.9523 102.241 17.7192 101.642C18.0955 101.539 19.4185 101.15 19.9502 100.68C20.4818 100.21 21.0401 99.4458 21.0353 98.6316C21.0402 98.44 21.0101 98.2494 20.9469 98.0722C20.8836 97.895 20.7886 97.7351 20.6681 97.6031C20.5476 97.4711 20.4043 97.3698 20.2475 97.306C20.0908 97.2421 19.9241 97.2171 19.7584 97.2325C18.7631 97.3584 17.8989 99.1912 17.7192 100.193C17.7192 100.254 17.6488 100.996 17.6246 101.402C17.4813 101.044 17.3405 100.685 17.1876 100.327C16.7433 99.2947 16.2651 98.2678 15.7917 97.2493C15.6485 96.9359 15.5053 96.6197 15.3645 96.3035C15.498 96.27 17.0808 95.8446 17.6755 95.3186C18.2047 94.8513 18.7655 94.0846 18.7606 93.2704C18.7656 93.0788 18.7355 92.8882 18.6722 92.711C18.609 92.5338 18.514 92.3739 18.3935 92.2419C18.273 92.1099 18.1297 92.0086 17.9729 91.9448C17.8161 91.8809 17.6495 91.8559 17.4838 91.8713C16.4885 91.9944 15.6242 93.83 15.4446 94.8289C15.43 94.9073 15.3475 95.9706 15.3378 96.2448C15.0246 95.548 14.7188 94.8457 14.4396 94.1518C14.062 93.2087 13.7377 92.2385 13.4686 91.2473C13.5317 91.2305 15.1849 90.7968 15.7942 90.2568C16.3234 89.7895 16.8841 89.0228 16.8793 88.2086C16.8843 88.0168 16.8541 87.8259 16.7907 87.6485C16.7273 87.471 16.6321 87.311 16.5113 87.179C16.3905 87.0469 16.2469 86.9457 16.0899 86.882C15.9328 86.8184 15.7659 86.7936 15.6 86.8095C14.6071 86.9326 13.7429 88.7682 13.5632 89.7671C13.5487 89.8483 13.4589 90.9927 13.4564 91.2026C13.4419 91.1466 13.42 91.0878 13.4055 91.0291C13.1571 90.0225 12.9874 88.9925 12.8981 87.9511C12.8423 87.3775 12.818 86.8319 12.8034 86.289C13.119 86.2443 14.5561 86.026 15.1509 85.6091C15.7456 85.1922 16.3525 84.5206 16.4253 83.712C16.4487 83.5223 16.4369 83.329 16.3909 83.1449C16.345 82.9608 16.2657 82.79 16.1585 82.6436C16.0512 82.4973 15.9183 82.3787 15.7685 82.2957C15.6187 82.2126 15.4554 82.167 15.2892 82.1618C14.2891 82.1618 13.2574 83.8631 12.9806 84.8424C12.9661 84.8984 12.8665 85.458 12.7986 85.8665C12.7986 85.6259 12.7864 85.3741 12.7986 85.1418C12.7986 84.2716 12.8471 83.4629 12.8932 82.7662C12.9248 82.3633 12.9564 82.0023 12.9928 81.6637C13.2816 81.4343 14.4493 80.4913 14.794 79.8198C15.1387 79.1482 15.4252 78.2165 15.1654 77.4582C15.11 77.2776 15.0221 77.1125 14.9076 76.9737C14.793 76.8349 14.6544 76.7254 14.5007 76.6526C14.347 76.5797 14.1817 76.545 14.0155 76.5507C13.8494 76.5565 13.6862 76.6025 13.5365 76.6859C12.6481 77.2147 12.415 79.2769 12.5655 80.2927C12.5801 80.3822 12.9151 81.7281 12.9297 81.7169H12.9466C12.9078 82.0415 12.869 82.3913 12.835 82.7718C12.7743 83.4797 12.7112 84.28 12.6918 85.153C12.6639 86.0965 12.6833 87.041 12.75 87.9819C12.821 89.0355 12.9737 90.0796 13.2064 91.1018V91.1382C13.0486 90.8584 12.5849 90.0721 12.5437 90.0189C11.9586 89.2383 10.4341 88.1302 9.51165 88.5807C9.36059 88.6606 9.2258 88.7762 9.11603 88.92C9.00626 89.0638 8.92398 89.2327 8.87453 89.4155C8.82507 89.5984 8.80956 89.7913 8.82899 89.9815C8.84841 90.1718 8.90235 90.3552 8.9873 90.5198C9.31744 91.2305 10.1331 91.5831 10.7934 91.695Z" fill="#0B71BB"/>
<path d="M27.9429 86.2777C27.9575 86.2777 28.2609 84.9318 28.273 84.8422C28.3969 83.8237 28.1128 81.7643 27.2122 81.269C27.0607 81.1905 26.8965 81.1496 26.7304 81.1491C26.5643 81.1486 26.4 81.1885 26.2481 81.2661C26.0963 81.3437 25.9603 81.4574 25.8491 81.5996C25.7379 81.7419 25.654 81.9095 25.6027 82.0916C25.36 82.8555 25.6658 83.7929 26.03 84.4393C26.4548 85.1976 27.9405 86.2749 27.9429 86.2777Z" fill="#0B71BB"/>
<path d="M131.635 77.4223C132.606 77.9063 134.953 77.8448 134.956 77.8448C134.958 77.8448 134.448 76.068 134.405 75.9616C133.887 74.7137 132.254 72.657 130.923 72.8641C130.703 72.9051 130.493 72.9992 130.306 73.1402C130.12 73.2813 129.961 73.4662 129.841 73.6827C129.721 73.8993 129.641 74.1427 129.608 74.397C129.575 74.6513 129.589 74.9108 129.649 75.1586C129.87 76.219 130.814 77.0081 131.635 77.4223Z" fill="#0B71BB"/>
<path d="M132.451 85.2899C133.449 85.4578 135.551 84.7555 135.718 84.6967C136.065 86.0841 136.492 87.4433 136.995 88.7652C137.284 89.5375 137.595 90.3042 137.918 91.068C137.726 90.7435 137.551 90.4553 137.525 90.4189C136.738 89.3752 134.692 87.8866 133.456 88.491C133.253 88.5981 133.072 88.7533 132.925 88.9463C132.778 89.1393 132.667 89.3659 132.601 89.6113C132.534 89.8567 132.514 90.1155 132.54 90.3708C132.566 90.6261 132.638 90.8722 132.752 91.0932C133.208 92.0502 134.301 92.5231 135.18 92.6714C136.058 92.8197 137.881 92.2657 138.357 92.1118C138.483 92.4056 138.6 92.6966 138.733 92.9876C139.34 94.3866 139.947 95.7857 140.518 97.1624C140.719 97.652 140.899 98.1417 141.081 98.6286C140.911 98.3488 140.765 98.1025 140.739 98.069C139.955 97.0225 137.908 95.5367 136.672 96.1411C136.47 96.2476 136.288 96.4022 136.141 96.595C135.993 96.7877 135.883 97.0141 135.816 97.2594C135.75 97.5047 135.729 97.7634 135.755 98.0187C135.782 98.2739 135.854 98.5199 135.968 98.7405C136.425 99.6975 137.517 100.17 138.396 100.321C139.275 100.473 140.921 99.9661 141.486 99.787C141.661 100.293 141.836 100.8 141.972 101.301C142.066 101.645 142.178 101.97 142.256 102.322C142.334 102.675 142.423 103.01 142.499 103.352C142.635 104.012 142.78 104.692 142.902 105.341C142.987 105.792 143.062 106.223 143.144 106.656C142.95 106.167 142.554 105.221 142.513 105.145C141.877 103.976 140.047 102.149 138.748 102.529C138.534 102.6 138.334 102.721 138.163 102.886C137.992 103.051 137.853 103.256 137.755 103.487C137.657 103.717 137.603 103.969 137.595 104.226C137.587 104.483 137.626 104.739 137.709 104.978C138.034 106.004 139.051 106.656 139.908 106.964C140.85 107.297 142.938 106.992 143.198 106.964C143.324 107.683 143.44 108.383 143.54 109.046C143.613 109.536 143.683 110.009 143.746 110.462H144.581C144.501 109.958 144.416 109.429 144.322 108.878C144.195 108.148 144.05 107.37 143.894 106.572C144.523 106.284 145.136 105.952 145.73 105.579C146.417 106.435 148.177 107.44 148.4 107.566C148.157 108.246 147.914 108.903 147.689 109.524C147.565 109.852 147.446 110.16 147.325 110.467H148.211C148.279 110.274 148.349 110.084 148.419 109.883C148.662 109.194 148.917 108.453 149.167 107.689C149.41 107.75 151.485 108.235 152.449 107.969C153.323 107.742 154.391 107.171 154.77 106.178C154.867 105.948 154.922 105.697 154.93 105.442C154.939 105.186 154.9 104.932 154.817 104.694C154.735 104.457 154.61 104.242 154.451 104.064C154.292 103.886 154.102 103.748 153.894 103.66C152.622 103.164 150.679 104.832 149.968 105.943C149.927 106.007 149.541 106.782 149.303 107.269C149.405 106.956 149.505 106.654 149.606 106.332C149.81 105.694 149.995 105.05 150.199 104.356L150.463 103.335C150.558 102.994 150.621 102.622 150.706 102.263C150.879 101.424 151.019 100.568 151.143 99.6975C151.629 99.9017 153.359 100.596 154.255 100.523C155.151 100.45 156.27 100.072 156.787 99.1574C156.915 98.9471 157.003 98.708 157.045 98.4558C157.088 98.2037 157.084 97.944 157.033 97.6938C156.983 97.4436 156.887 97.2084 156.753 97.0036C156.619 96.7987 156.448 96.6288 156.253 96.5048C155.059 95.7941 152.923 97.1008 152.073 98.0774C152.019 98.1361 151.478 98.9168 151.187 99.3505C151.26 98.8273 151.332 98.3068 151.388 97.7752C151.553 96.239 151.68 94.6832 151.811 93.1275C151.852 92.6518 151.896 92.1789 151.939 91.7032C152.112 91.7788 154.153 92.6546 155.158 92.5734C156.052 92.5007 157.173 92.1229 157.69 91.208C157.818 90.9974 157.906 90.7581 157.949 90.5057C157.991 90.2533 157.987 89.9935 157.937 89.7431C157.886 89.4926 157.791 89.2572 157.656 89.0521C157.522 88.847 157.351 88.6768 157.156 88.5525C155.962 87.8446 153.823 89.1513 152.976 90.1251C152.91 90.2006 152.134 91.3199 151.947 91.6165C152.044 90.5728 152.148 89.5319 152.287 88.5106C152.467 87.1311 152.725 85.7665 153.058 84.4253C153.139 84.4589 155.268 85.3851 156.297 85.3039C157.19 85.2312 158.309 84.8534 158.826 83.9356C158.954 83.7253 159.042 83.4862 159.085 83.234C159.127 82.9819 159.123 82.7222 159.073 82.472C159.022 82.2218 158.927 81.9866 158.792 81.7818C158.658 81.5769 158.487 81.407 158.292 81.283C157.1 80.5723 154.962 81.8818 154.112 82.8556C154.046 82.9311 153.209 84.1371 153.071 84.3693C153.092 84.291 153.105 84.2098 153.126 84.1315C153.503 82.7918 153.983 81.4939 154.561 80.2533C154.867 79.565 155.192 78.9242 155.532 78.3114C155.913 78.5324 157.664 79.5118 158.598 79.5538C159.491 79.5957 160.642 79.3607 161.242 78.5185C161.389 78.3256 161.5 78.0991 161.566 77.8538C161.633 77.6084 161.653 77.3496 161.627 77.0944C161.601 76.8391 161.529 76.593 161.415 76.3722C161.301 76.1514 161.147 75.9607 160.965 75.8127C159.846 74.9564 157.596 75.9862 156.659 76.8452C156.608 76.8927 156.137 77.4356 155.797 77.8357C155.95 77.5559 156.1 77.2761 156.251 77.0159C156.814 76.0421 157.38 75.1887 157.887 74.4388C158.176 74.0135 158.448 73.6385 158.705 73.2888C159.176 73.2888 161.074 73.2132 161.904 72.7627C162.735 72.3122 163.64 71.5064 163.847 70.4375C163.9 70.1881 163.907 69.9285 163.868 69.6757C163.829 69.4228 163.744 69.1823 163.618 68.9699C163.493 68.7574 163.331 68.5777 163.141 68.4425C162.952 68.3072 162.74 68.2195 162.519 68.185C161.184 68.0171 159.606 70.1269 159.12 71.3888C159.079 71.498 158.591 73.2916 158.615 73.2888H158.642C158.399 73.6189 158.122 73.9771 157.838 74.3744C157.316 75.1159 156.731 75.9554 156.139 76.9207C155.502 77.9515 154.918 79.0241 154.389 80.133C153.791 81.3717 153.292 82.6696 152.896 84.0112C152.891 84.0276 152.887 84.0444 152.884 84.0615C152.884 83.6082 152.884 82.3407 152.862 82.2428C152.706 80.8745 151.711 78.3254 150.391 78.0456C150.17 78.0064 149.945 78.0211 149.73 78.0887C149.515 78.1562 149.315 78.2751 149.142 78.4376C148.97 78.6002 148.829 78.8027 148.729 79.0321C148.628 79.2615 148.571 79.5126 148.56 79.7692C148.483 80.8577 149.167 81.9462 149.835 82.6345C150.587 83.4096 152.677 84.1595 152.842 84.2182C152.469 85.5935 152.175 86.9956 151.961 88.4154C151.833 89.2549 151.718 90.0803 151.629 90.9337C151.629 90.542 151.629 90.1922 151.612 90.1447C151.456 88.7736 150.461 86.2273 149.14 85.9475C148.92 85.9075 148.695 85.9215 148.48 85.9885C148.264 86.0555 148.064 86.174 147.891 86.3364C147.718 86.4987 147.577 86.7012 147.476 86.9307C147.376 87.1602 147.318 87.4116 147.308 87.6683C147.232 88.7568 147.917 89.8453 148.584 90.5336C149.252 91.2219 151.031 91.9131 151.498 92.0866C151.464 92.4084 151.425 92.7329 151.391 93.0547C151.231 94.6077 151.075 96.1578 150.883 97.6716C150.815 98.2061 150.733 98.7293 150.641 99.2526C150.641 98.9056 150.641 98.6118 150.624 98.567C150.471 97.196 149.475 94.6497 148.155 94.3698C147.934 94.3303 147.709 94.3446 147.494 94.412C147.279 94.4793 147.078 94.5982 146.905 94.7607C146.732 94.9233 146.591 95.126 146.49 95.3556C146.39 95.5852 146.333 95.8366 146.322 96.0935C146.244 97.182 146.931 98.2704 147.599 98.9588C148.266 99.6471 149.874 100.268 150.432 100.478C150.335 101.01 150.238 101.544 150.121 102.056C150.036 102.403 149.973 102.745 149.878 103.089C149.784 103.433 149.687 103.772 149.592 104.107C149.39 104.745 149.187 105.406 148.975 106.024C148.832 106.452 148.689 106.863 148.546 107.272C148.618 106.74 148.742 105.699 148.742 105.61C148.729 104.395 148.445 103.204 147.917 102.151C147.919 102.017 147.912 101.882 147.895 101.749C147.867 101.493 147.793 101.248 147.678 101.028C147.562 100.808 147.408 100.619 147.225 100.472C147.041 100.326 146.834 100.226 146.614 100.178C146.395 100.13 146.17 100.136 145.953 100.196C144.654 100.593 143.834 103.218 143.768 104.597C143.768 104.678 143.812 105.565 143.848 106.125C143.783 105.8 143.722 105.484 143.652 105.151C143.516 104.488 143.363 103.833 143.203 103.128C143.114 102.79 143.024 102.449 142.933 102.104C142.851 101.762 142.724 101.41 142.62 101.06C142.363 100.251 142.069 99.4456 141.758 98.6426C142.261 98.5027 144.035 97.9822 144.749 97.3498C145.463 96.7175 146.205 95.6962 146.205 94.6021C146.212 94.3453 146.171 94.0899 146.086 93.8524C146.001 93.615 145.873 93.4009 145.711 93.2241C145.55 93.0472 145.358 92.9116 145.147 92.826C144.937 92.7404 144.714 92.7068 144.492 92.7273C143.156 92.8952 141.999 95.3464 141.756 96.6979C141.741 96.7818 141.661 97.7752 141.627 98.3236C141.438 97.8423 141.248 97.361 141.042 96.8798C140.445 95.4975 139.804 94.118 139.17 92.7357C138.976 92.3132 138.787 91.8963 138.595 91.4682C138.775 91.4206 140.899 90.8526 141.697 90.1447C142.406 89.5179 143.154 88.491 143.154 87.3969C143.16 87.1401 143.119 86.8847 143.033 86.6474C142.948 86.4101 142.82 86.1962 142.658 86.0197C142.496 85.8431 142.304 85.7078 142.094 85.6225C141.883 85.5373 141.66 85.5041 141.438 85.525C140.105 85.6901 138.947 88.1412 138.704 89.4927C138.685 89.5962 138.573 91.0261 138.561 91.3898C138.141 90.4581 137.728 89.5235 137.347 88.5917C136.838 87.3265 136.4 86.0245 136.036 84.6939C136.121 84.6715 138.338 84.0895 139.156 83.3676C139.867 82.738 140.612 81.7111 140.612 80.6199C140.619 80.3629 140.578 80.1073 140.493 79.8697C140.408 79.632 140.281 79.4178 140.119 79.2408C139.957 79.0639 139.765 78.9283 139.555 78.8429C139.344 78.7574 139.121 78.7241 138.899 78.7451C137.563 78.9102 136.405 81.3614 136.163 82.7156C136.146 82.822 136.024 84.3581 136.019 84.638C136 84.5624 135.971 84.4841 135.951 84.4085C135.622 83.0584 135.397 81.6772 135.279 80.2813C135.204 79.5118 135.17 78.7731 135.15 78.0428C135.573 77.984 137.503 77.6874 138.306 77.1306C139.11 76.5738 139.921 75.67 140.018 74.5815C140.048 74.327 140.031 74.0681 139.969 73.8215C139.906 73.5749 139.8 73.3462 139.656 73.1502C139.512 72.9542 139.334 72.7952 139.133 72.6836C138.932 72.5721 138.713 72.5103 138.491 72.5025C137.148 72.5025 135.765 74.7886 135.396 76.1037C135.374 76.1736 135.24 76.9263 135.153 77.4748C135.153 77.1502 135.138 76.8144 135.153 76.5038C135.153 75.3342 135.218 74.2653 135.281 73.3139C135.323 72.7767 135.366 72.2898 135.415 71.8365C135.803 71.5287 137.357 70.264 137.843 69.363C138.328 68.462 138.69 67.2084 138.34 66.1927C138.265 65.9507 138.147 65.7296 137.994 65.5437C137.84 65.3577 137.654 65.2112 137.448 65.1135C137.242 65.0159 137.02 64.9693 136.798 64.9769C136.575 64.9844 136.356 65.0459 136.155 65.1574C134.961 65.8681 134.648 68.6355 134.845 69.9982C134.864 70.1157 135.313 71.9205 135.33 71.9065L135.352 71.8869C135.298 72.3234 135.247 72.7935 135.201 73.3056C135.119 74.2541 135.034 75.3258 135.01 76.501C134.971 77.7655 134.998 79.0316 135.09 80.2925C135.183 81.7098 135.387 83.1145 135.699 84.4897C135.699 84.5037 135.699 84.5204 135.699 84.5372C135.488 84.1539 134.866 83.1074 134.811 83.0346C134.026 81.9881 131.98 80.5023 130.744 81.1067C130.542 81.2139 130.361 81.369 130.213 81.562C130.066 81.755 129.956 81.9816 129.889 82.227C129.823 82.4724 129.802 82.7312 129.828 82.9865C129.854 83.2418 129.926 83.488 130.04 83.709C130.472 84.6687 131.565 85.1416 132.451 85.2899Z" fill="#0B71BB"/>
<path d="M155.466 78.0156C155.486 78.0324 155.894 76.2108 155.908 76.0933C156.073 74.725 155.695 71.9688 154.486 71.2973C154.282 71.192 154.062 71.1371 153.839 71.1364C153.616 71.1357 153.396 71.189 153.192 71.293C152.988 71.397 152.806 71.5493 152.656 71.74C152.507 71.9307 152.394 72.1555 152.325 72.3997C152.002 73.4267 152.413 74.6858 152.898 75.5504C153.469 76.5745 155.464 78.0156 155.466 78.0156Z" fill="#0B71BB"/>
<g opacity="0.3">
<path d="M24.2835 57.4782C25.8614 58.0602 29.5489 57.5202 29.5513 57.5202C29.5901 57.5202 28.505 54.8284 28.4201 54.6661C27.4345 52.8081 24.5797 49.8869 22.5235 50.4689C21.0403 50.8802 20.3606 52.7074 20.8461 54.3051C21.3316 55.9029 22.9386 56.9858 24.2835 57.4782Z" stroke="black" stroke-width="1.10658" stroke-linecap="round" stroke-linejoin="round"/>
<path d="M47.9888 85.875C48.887 84.7558 49.6881 83.214 49.5376 81.6974C49.3749 80.0186 48.081 78.709 46.5832 79.0784C44.5125 79.5905 43.0414 83.6505 42.8521 85.8191C42.8521 85.9534 42.8521 87.5259 42.8812 88.3906C42.5146 87.6714 42.1529 86.9523 41.7597 86.2388C40.6284 84.1766 39.4292 82.134 38.2397 80.0829C37.8731 79.4561 37.5114 78.8266 37.157 78.1998C37.3221 78.1354 38.5407 77.6402 39.7448 77.005" stroke="black" stroke-width="1.10658" stroke-linecap="round" stroke-linejoin="round"/>
<path d="M45.4131 93.9205C45.2383 93.4505 45.0198 92.9748 44.828 92.4963C44.311 91.2763 43.7381 90.0675 43.1287 88.8587C44.3152 88.3871 45.4678 87.8089 46.5759 87.1295" stroke="black" stroke-width="1.10658" stroke-linecap="round" stroke-linejoin="round"/>
<path d="M60.9896 71.8563C60.4741 72.2954 60.0041 72.8014 59.5889 73.3645C59.4991 73.4904 58.4383 75.3959 58.1882 75.8828C58.1882 74.2263 58.2077 72.5754 58.2805 70.9497C58.3706 68.7518 58.583 66.5629 58.9165 64.3965C59.0476 64.4356 62.5166 65.4877 64.1188 65.1659C65.5098 64.8861 67.2139 64.0803 67.896 62.5469C68.5782 61.0135 68.1048 59.1248 66.6823 58.484C64.7111 57.597 61.5431 60.0482 60.3488 61.7354C60.2541 61.867 59.1131 63.918 58.9286 64.3069C58.9505 64.181 58.9578 64.0495 58.9796 63.9236C59.3683 61.7625 59.9223 59.6453 60.6352 57.597C61.0188 56.4582 61.4387 55.3977 61.866 54.3736C62.4947 54.6534 65.3811 55.8566 66.8498 55.7474C68.2602 55.6439 70.0299 55.0619 70.8528 53.6265C71.6757 52.191 71.3844 50.2491 70.0347 49.4293C68.1606 48.31 64.7766 50.3303 63.4293 51.8581C63.3541 51.9392 62.7011 52.8794 62.2156 53.5705C62.4146 53.1116 62.6137 52.6359 62.8127 52.1994C63.5556 50.5653 64.3227 49.1215 65.0121 47.8511C65.4078 47.132 65.7792 46.4885 66.1336 45.8925C66.8619 45.7889 69.8405 45.3328 71.0786 44.4682C72.3166 43.6036 73.6129 42.1961 73.7804 40.4781C73.9479 38.76 72.9041 37.1987 71.3796 37.1931C69.2627 37.1931 67.0731 40.7859 66.4856 42.8593C66.4347 43.0384 65.9224 45.9372 65.9588 45.9372H66.005C65.6554 46.4968 65.2767 47.1152 64.8956 47.7924C64.1794 49.0515 63.3832 50.4786 62.6064 52.0987C61.7531 53.836 60.988 55.6289 60.3148 57.4683C59.5526 59.5245 58.9506 61.6548 58.516 63.834C58.516 63.8592 58.516 63.8872 58.516 63.9124C58.4626 63.2017 58.2562 61.215 58.2246 61.0639C57.7901 58.9457 55.8675 55.1431 53.7579 54.95C52.2383 54.8101 51.0876 56.3071 51.1289 57.9943C51.1702 59.6816 52.3888 61.2961 53.5322 62.2503C54.8236 63.3248 58.2077 64.1083 58.4771 64.1726C58.0821 66.4012 57.8169 68.6578 57.6833 70.9273C57.6008 72.2508 57.5522 73.5855 57.5158 74.9258C57.4527 74.3102 57.392 73.7618 57.3774 73.6862C56.9429 71.5653 55.0203 67.7654 52.9107 67.5723C51.3911 67.4324 50.2404 68.9294 50.2817 70.6167C50.323 72.304 51.5416 73.9185 52.685 74.8698C53.8283 75.8212 56.7196 76.5739 57.4818 76.7586C57.4818 77.2706 57.46 77.7855 57.4527 78.2975C57.4187 80.7627 57.3944 83.225 57.307 85.637C57.2779 86.4765 57.2196 87.3159 57.1662 88.1553C57.108 87.5957 57.057 87.1508 57.0424 87.0837C56.6079 84.9627 54.6877 81.1628 52.5782 80.967C51.0561 80.8298 49.9078 82.3268 49.9467 84.0113C49.9855 85.6958 51.2066 87.3159 52.35 88.2673C53.4933 89.2186 56.1054 89.8986 57.0109 90.1196C56.9332 90.9758 56.8555 91.8321 56.7463 92.6547C56.6613 93.2143 56.6127 93.774 56.5035 94.3336C56.3943 94.8932 56.2996 95.4361 56.2001 95.9817C55.9743 97.0198 55.7461 98.0943 55.5034 99.1044C55.3407 99.8067 55.1708 100.473 55.0178 101.141C55.0567 100.302 55.1028 98.6399 55.0931 98.5C54.8977 96.5967 54.2826 94.7827 53.3064 93.2311C53.2927 93.0184 53.2618 92.8077 53.2142 92.6016C52.8355 90.9731 51.3741 89.9042 49.9491 90.5281C47.9706 91.3956 47.0506 95.6655 47.1501 97.8424C47.1501 97.9684 47.354 99.3534 47.49 100.224C47.3419 99.7284 47.2035 99.2415 47.0457 98.7322C46.7399 97.7193 46.4073 96.7204 46.0529 95.6543" stroke="black" stroke-width="1.10658" stroke-linecap="round" stroke-linejoin="round"/>
<path d="M35.9053 91.6133C36.6208 91.9177 37.3739 92.0886 38.1362 92.1197C39.5005 92.1841 42.047 91.09 42.9088 90.7011C43.2535 91.465 43.5982 92.2261 43.9017 92.9843C44.0983 93.5076 44.3192 93.9945 44.4916 94.5317C44.6639 95.0689 44.8508 95.581 45.028 96.0987C45.3363 97.1088 45.6616 98.1497 45.9408 99.1458C46.1399 99.837 46.3195 100.497 46.5016 101.163C46.1302 100.433 45.3752 99.0227 45.2999 98.9108C44.1347 97.1983 41.008 94.6744 39.0223 95.5166C37.59 96.1238 37.0972 98.035 37.7405 99.5515C38.3838 101.068 40.0831 101.941 41.4692 102.255C42.9937 102.596 46.2248 101.731 46.6278 101.619C46.924 102.722 47.2056 103.799 47.4556 104.82C47.6417 105.576 47.8165 106.303 47.98 107.003L49.2908 106.846C49.0942 106.068 48.8854 105.257 48.6572 104.409C48.3587 103.29 48.0212 102.095 47.6644 100.875C48.6087 100.302 49.523 99.6659 50.4027 98.9695C51.6019 100.187 54.5028 101.429 54.8791 101.589C54.5999 102.708 54.3183 103.774 54.0367 104.784C53.8911 105.321 53.7454 105.828 53.6022 106.329L54.9883 106.164C55.0709 105.847 55.1534 105.537 55.2311 105.207C55.5175 104.087 55.8064 102.873 56.0929 101.628C56.4983 101.675 59.807 102.045 61.2806 101.474C62.6181 100.953 64.1936 99.8593 64.6791 98.228C65.1647 96.5967 64.4364 94.8059 62.9459 94.4226C60.8824 93.8881 58.0713 96.8653 57.1197 98.7429C57.0615 98.852 56.5662 100.142 56.2628 100.948C56.3769 100.439 56.4934 99.9433 56.6051 99.4172C56.8357 98.3791 57.0348 97.3354 57.2557 96.2134C57.3455 95.6538 57.4377 95.1137 57.5276 94.5569C57.6174 94.0001 57.6756 93.4097 57.7533 92.8305C57.9063 91.4846 57.9961 90.1135 58.0762 88.7284C58.8651 88.955 61.6787 89.7189 63.077 89.4391C64.4752 89.1593 66.1697 88.3535 66.8518 86.8229C67.534 85.2923 67.0606 83.398 65.638 82.7572C63.6669 81.8702 60.4965 84.3214 59.3021 86.0086C59.2268 86.1149 58.4889 87.4357 58.0883 88.1716C58.1247 87.3321 58.166 86.5067 58.1806 85.6533C58.2243 83.2161 58.2 80.7481 58.1806 78.2858C58.1806 77.5303 58.1806 76.7776 58.1806 76.0249C58.4622 76.1117 61.7879 77.1022 63.3537 76.786C64.7447 76.5062 66.4464 75.7031 67.1285 74.1698C67.8107 72.6364 67.3373 70.7476 65.9148 70.1069C64.9874 69.6899 63.7955 70.0117 62.6691 70.6441" stroke="black" stroke-width="1.10658" stroke-linecap="round" stroke-linejoin="round"/>
<path d="M33.6754 88.9735C33.7514 89.3751 33.8957 89.7554 34.0999 90.0924C34.2877 90.4048 34.5169 90.6813 34.7791 90.9119" stroke="black" stroke-width="1.10658" stroke-linecap="round" stroke-linejoin="round"/>
<path d="M27.2476 69.6323C28.9299 69.4253 31.491 68.2333 31.7192 68.1185C32.4556 70.2286 33.3136 72.2796 34.2876 74.2576C34.8508 75.416 35.4479 76.5605 36.0597 77.6993C35.7125 77.2264 35.4018 76.8067 35.3508 76.7536C33.9744 75.2622 30.5515 73.3147 28.6993 74.4927C27.3642 75.3321 27.1287 77.3188 27.971 78.7066C28.8134 80.0945 30.6025 80.6653 32.0105 80.7269C33.4185 80.7885 36.1908 79.5825 36.9166 79.2495C37.1594 79.6832 37.3875 80.1197 37.6279 80.5534C38.781 82.6296 39.9389 84.6974 41.0265 86.7653C41.4076 87.4928 41.7547 88.2259 42.1164 88.959C41.8081 88.5421 41.546 88.1923 41.4998 88.1419C40.1234 86.6505 36.7006 84.703 34.8483 85.881C34.4278 86.1476 34.0888 86.5569 33.8773 87.0535" stroke="black" stroke-width="1.10658" stroke-linecap="round" stroke-linejoin="round"/>
<path d="M36.924 52.2708C36.976 52.0121 37.0029 51.7474 37.0041 51.4818C37.0041 49.8029 35.834 48.3283 34.3168 48.5046C32.2097 48.7536 30.3623 52.6038 29.969 54.7332C29.9472 54.8479 29.8404 56.0539 29.7773 56.9325C29.7239 56.4233 29.6607 55.9 29.6195 55.4103C29.4568 53.5748 29.4059 51.8847 29.3767 50.3737C29.3622 49.5203 29.3646 48.7508 29.3767 48.0289C29.9423 47.4693 32.2 45.2 32.8214 43.6946C33.4429 42.1892 33.8459 40.1606 33.1564 38.6328C32.467 37.105 30.8551 36.453 29.5806 37.4184C27.811 38.7559 27.709 43.1545 28.2115 45.2531C28.2552 45.435 29.2165 48.1828 29.2456 48.1548L29.2796 48.1212C29.2578 48.8152 29.2432 49.5623 29.2408 50.3737C29.2408 51.8763 29.2651 53.5748 29.3937 55.4103C29.5124 57.4017 29.732 59.3834 30.0516 61.3452C30.4013 63.5445 30.9196 65.7038 31.6004 67.7976C31.6004 67.8228 31.6198 67.848 31.6271 67.8704C31.2435 67.3108 30.1196 65.7858 30.0225 65.6795C28.646 64.1881 25.2232 62.2406 23.3709 63.4214C22.0358 64.2608 21.8003 66.2447 22.6427 67.6325C23.2811 68.693 24.4439 69.2611 25.5776 69.5073" stroke="black" stroke-width="1.10658" stroke-linecap="round" stroke-linejoin="round"/>
<path d="M40.6612 76.4807C41.0853 76.2269 41.4807 75.914 41.8386 75.5489C42.8654 74.4297 43.902 72.678 43.7369 70.9656C43.5718 69.2531 42.2804 67.98 40.7826 68.3493C38.7119 68.8614 37.2408 72.9215 37.0538 75.0872C37.0393 75.2523 37.066 77.5132 37.0951 78.0896C36.3062 76.7045 35.5293 75.3167 34.8108 73.9148C33.8329 72.0233 32.9628 70.0605 32.206 68.0388C32.3322 67.9884 35.7308 66.6593 36.913 65.3721C37.9375 64.2529 38.974 62.5013 38.809 60.7888C38.6439 59.0764 37.3524 57.8004 35.8546 58.1698C33.7839 58.6818 32.3152 62.7419 32.1259 64.9105C32.1113 65.0811 32.1405 67.5155 32.172 67.9548C32.1283 67.8401 32.0725 67.7226 32.0312 67.605C31.3201 65.555 30.7693 63.4359 30.3853 61.2729C30.1596 60.0837 30.0018 58.9309 29.8683 57.8032C30.5237 57.6325 33.5096 56.8043 34.6821 55.7802C35.2515 55.2903 35.7553 54.7068 36.1775 54.0481" stroke="black" stroke-width="1.10658" stroke-linecap="round" stroke-linejoin="round"/>
<path d="M61.74 53.95C61.7764 53.9696 62.1575 51.0399 62.1648 50.8525C62.2303 48.6755 61.2472 44.4168 59.2517 43.5941C57.8195 42.9981 56.3751 44.095 56.0182 45.7291C55.6614 47.3632 56.477 49.2995 57.3631 50.5643C58.4069 52.0501 61.7376 53.95 61.74 53.95Z" stroke="black" stroke-width="1.10658" stroke-linecap="round" stroke-linejoin="round"/>
</g>
<g opacity="0.3">
<path d="M117.411 18.0779C118.729 18.6907 120.05 19.116 120.052 19.116C120.055 19.116 119.997 16.1751 119.984 15.9793C119.7 13.8275 118.042 9.85697 115.967 9.46523C114.462 9.18542 113.216 10.5677 113.129 12.2634C113.042 13.959 114.151 15.6715 115.224 16.7404" stroke="black" stroke-width="1.10658" stroke-linecap="round" stroke-linejoin="round"/>
<path d="M148.543 41.335C148.796 41.4673 149.058 41.5732 149.327 41.6512C150.704 42.0121 152.544 42.0373 153.697 40.9292C154.85 39.8212 155.042 37.8681 153.94 36.6425C152.422 34.9412 148.674 35.7807 147.004 36.802C146.873 36.8803 145.132 38.2598 144.831 38.534C144.892 38.4277 144.945 38.3102 145.006 38.2039C146.094 36.3871 147.319 34.6848 148.667 33.1169C149.395 32.2383 150.145 31.438 150.886 30.6965C151.371 31.2309 153.624 33.6345 155.013 34.1941C156.345 34.7314 158.168 34.986 159.416 34.0319C159.873 33.6923 160.226 33.1957 160.426 32.6122C160.625 32.0288 160.66 31.388 160.526 30.7804" stroke="black" stroke-width="1.10658" stroke-linecap="round" stroke-linejoin="round"/>
<path d="M128.776 6.49877C129.375 5.5558 129.807 4.43935 129.73 3.3201C129.611 1.64122 128.344 0.284132 126.843 0.60032C124.761 1.04242 123.185 5.04934 122.94 7.20949C122.92 7.39417 122.879 10.3574 122.916 10.3462L122.959 10.3294C122.717 10.9618 122.44 11.6389 122.165 12.3888C121.663 13.7879 121.109 15.3492 120.605 17.1093C120.043 18.9975 119.577 20.9222 119.211 22.8734C118.791 25.0557 118.541 27.2769 118.463 29.5105C118.462 29.5376 118.462 29.5647 118.463 29.5917C118.298 28.9006 117.776 26.995 117.735 26.8523C116.968 24.8629 114.473 21.5359 112.368 21.7933C110.851 21.978 109.967 23.6932 110.268 25.3441C110.569 26.995 112.035 28.3213 113.312 29.0153C114.752 29.796 118.204 29.8547 118.478 29.8547C118.444 32.1289 118.541 34.4031 118.767 36.6626C118.896 37.9805 119.061 39.3012 119.252 40.6247C119.092 40.0343 118.944 39.5055 118.917 39.4383C118.15 37.446 115.652 34.1219 113.548 34.3765C112.033 34.564 111.149 36.2792 111.45 37.9273C111.751 39.5754 113.218 40.9073 114.494 41.5985C115.771 42.2896 118.73 42.4155 119.51 42.4379C119.585 42.9444 119.653 43.4508 119.728 43.9573C120.09 46.3888 120.456 48.812 120.76 51.2016C120.867 52.0411 120.944 52.8805 121.025 53.7199C120.881 53.1939 120.758 52.7546 120.731 52.6902C119.966 50.698 117.468 47.3738 115.363 47.6284C113.849 47.8159 112.965 49.5311 113.266 51.1792C113.567 52.8273 115.033 54.1592 116.31 54.8504C117.546 55.5219 120.26 55.6562 121.185 55.6898C121.245 56.5488 121.306 57.4051 121.33 58.2389C121.33 58.7985 121.377 59.3582 121.355 59.9178C121.333 60.4774 121.33 61.037 121.321 61.5967C121.265 62.6655 121.211 63.7708 121.136 64.8117C121.085 65.5392 121.027 66.2275 120.971 66.9243C120.874 66.0848 120.653 64.4451 120.622 64.3108C120.136 62.2094 118.094 58.4823 115.98 58.3704C114.451 58.2865 113.353 59.8254 113.426 61.5043C113.499 63.1832 114.781 64.7557 115.951 65.6623C117.242 66.6641 120.51 67.3104 120.92 67.3888C120.821 68.5388 120.716 69.6553 120.605 70.7101C120.522 71.488 120.437 72.2379 120.35 72.9486L121.612 73.3907C121.695 72.5886 121.775 71.7492 121.855 70.8724C121.959 69.7056 122.049 68.4549 122.131 67.1705C123.191 67.0646 124.245 66.888 125.287 66.6417C125.984 68.2982 128.239 70.7437 128.531 71.0571C127.899 71.9553 127.278 72.8199 126.678 73.6258C126.363 74.0539 126.059 74.4652 125.758 74.8542L127.091 75.3215L127.642 74.552C128.288 73.6454 128.96 72.6576 129.645 71.6391C129.999 71.8658 132.924 73.6873 134.476 73.8189C135.884 73.9392 137.707 73.6398 138.692 72.347C139.678 71.0543 139.62 69.0844 138.377 68.0659C136.656 66.6473 133.063 68.1331 131.546 69.4314C131.456 69.5097 130.575 70.4667 130.014 71.0823C130.291 70.6626 130.565 70.2596 130.844 69.8259C131.405 68.9725 131.944 68.0995 132.524 67.1621L133.332 65.7631C133.611 65.2986 133.854 64.7697 134.121 64.2717C134.716 63.0992 135.267 61.8793 135.801 60.6341C136.452 61.1937 138.787 63.1524 140.171 63.5274C141.554 63.9023 143.387 63.9135 144.54 62.8054C145.693 61.6974 145.885 59.7443 144.783 58.5187C143.266 56.8175 139.52 57.6569 137.85 58.6782C137.746 58.7426 136.619 59.6296 136.007 60.1304C136.323 59.3805 136.641 58.6334 136.94 57.8612C137.801 55.6227 138.612 53.3506 139.428 51.0757C139.671 50.379 139.935 49.6766 140.19 48.9939C140.433 49.1982 143.152 51.6018 144.7 52.0103C146.074 52.374 147.917 52.3964 149.07 51.2884C150.223 50.1803 150.415 48.23 149.313 47.0044C147.796 45.3032 144.05 46.1426 142.38 47.1611C142.254 47.2395 140.634 48.5182 140.236 48.868C140.797 47.3402 141.367 45.8264 141.984 44.3602C142.806 42.3749 143.74 40.4532 144.778 38.6073C145.628 39.3545 146.515 40.0449 147.434 40.6751" stroke="black" stroke-width="1.10658" stroke-linecap="round" stroke-linejoin="round"/>
<path d="M126.718 19.2507C127.677 18.7331 128.566 17.9496 128.961 16.8667C129.529 15.3138 128.944 13.4362 127.488 12.9214C125.463 12.2051 122.463 14.9248 121.382 16.7128C121.322 16.8108 120.819 17.8741 120.462 18.6547C120.586 18.1623 120.705 17.6502 120.831 17.1801C121.3 15.4173 121.824 13.8364 122.288 12.4401C122.562 11.6482 122.824 10.9375 123.077 10.2771C123.786 10.0169 126.628 8.93405 127.709 7.82599C127.816 7.71686 127.92 7.60214 128.024 7.48182" stroke="black" stroke-width="1.10658" stroke-linecap="round" stroke-linejoin="round"/>
<path d="M159.86 29.5455C158.362 27.9562 154.837 28.32 153.165 29.0838C153.07 29.1286 152.14 29.6966 151.465 30.1191C151.803 29.7862 152.148 29.4364 152.478 29.1258C153.713 27.9534 154.905 26.9657 155.969 26.101C156.578 25.617 157.136 25.1916 157.668 24.7999C158.381 25.035 161.273 25.9387 162.705 25.7009C164.137 25.4631 165.824 24.7244 166.548 23.2162C167.271 21.708 166.844 19.8025 165.441 19.1141C163.499 18.1572 160.263 20.5132 159.025 22.1445C158.918 22.2872 157.464 24.7328 157.503 24.7439H157.546C157.032 25.1105 156.486 25.5078 155.898 25.9583C154.815 26.7978 153.599 27.7547 152.337 28.902C150.965 30.119 149.656 31.427 148.416 32.8193C147.022 34.3735 145.749 36.0674 144.615 37.8811L144.578 37.9483C144.77 37.2684 145.248 35.346 145.27 35.1949C145.583 33.046 145.093 28.6837 143.214 27.5589C141.862 26.7502 140.301 27.6204 139.765 29.1874C139.228 30.7543 139.813 32.7942 140.546 34.1848C141.374 35.7518 144.229 37.9903 144.455 38.1694C143.34 40.0485 142.336 42.0116 141.449 44.0454C140.925 45.229 140.43 46.435 139.947 47.655C140.097 47.059 140.226 46.5357 140.236 46.4518C140.549 44.3028 140.061 39.9406 138.182 38.8157C136.827 38.0071 135.269 38.8773 134.732 40.4442C134.196 42.0112 134.781 44.051 135.514 45.4417C136.247 46.8323 138.67 48.8162 139.298 49.3283C139.116 49.7984 138.932 50.2628 138.752 50.7273C137.89 52.9854 137.038 55.2407 136.145 57.426C135.832 58.1955 135.497 58.9398 135.174 59.6869C135.305 59.1581 135.417 58.7132 135.417 58.6432C135.73 56.4943 135.24 52.132 133.361 51.0099C132.006 50.2013 130.448 51.0687 129.911 52.6357C129.375 54.2026 129.96 56.2424 130.693 57.6331C131.402 58.979 133.606 60.8174 134.363 61.4274C134.002 62.1801 133.635 62.9356 133.264 63.6463C132.997 64.1248 132.766 64.606 132.475 65.0705L131.63 66.4696C131.071 67.3258 130.501 68.2156 129.931 69.0355C129.542 69.5951 129.161 70.1547 128.782 70.692C129.103 69.9281 129.705 68.4227 129.741 68.2884C130.204 66.4474 130.249 64.5002 129.872 62.6334C129.931 62.4311 129.974 62.2232 130.001 62.0122C130.2 60.3333 129.214 58.702 127.69 58.6404C125.575 58.5537 123.289 62.0793 122.645 64.1276C122.607 64.2479 122.323 65.6106 122.16 66.4752C122.189 65.9519 122.225 65.4427 122.252 64.8998C122.31 63.831 122.34 62.7621 122.378 61.612C122.378 61.0524 122.378 60.4928 122.378 59.9332C122.378 59.3735 122.34 58.7747 122.323 58.1899C122.257 56.8356 122.133 55.4646 121.983 54.0879C122.796 54.1466 125.685 54.2977 127.013 53.7241C128.34 53.1505 129.894 51.9921 130.319 50.3412C130.744 48.6903 129.977 46.9331 128.479 46.6057C126.398 46.1524 123.675 49.2359 122.772 51.1471C122.713 51.2674 122.199 52.7224 121.929 53.5311C121.835 52.6916 121.742 51.8774 121.621 51.0435C121.274 48.6399 120.856 46.2196 120.448 43.802C120.325 43.0605 120.206 42.3218 120.087 41.5831C120.378 41.6054 123.806 41.8629 125.294 41.2305C126.614 40.6709 128.161 39.5069 128.586 37.856C129.01 36.2051 128.243 34.4478 126.746 34.1205C124.665 33.6672 121.941 36.7507 121.038 38.6618C120.97 38.8073 120.23 40.9003 120.067 41.4599C119.805 39.8286 119.558 38.2029 119.368 36.5884C119.105 34.4093 118.964 32.2129 118.946 30.0128C119.082 30.0128 122.66 30.3206 124.182 29.663C125.505 29.1034 127.049 27.9394 127.474 26.2885C127.899 24.6376 127.132 22.8804 125.634 22.553C123.553 22.0997 120.832 25.1805 119.927 27.0944C119.856 27.2455 119.062 29.5008 118.956 29.9233C118.956 29.7946 118.943 29.6631 118.943 29.5343C118.981 27.3277 119.187 25.1291 119.56 22.9643C119.754 21.7667 119.997 20.6335 120.254 19.5366C120.915 19.6709 123.944 20.2446 125.372 19.8164C125.549 19.7633 125.731 19.7045 125.913 19.6318" stroke="black" stroke-width="1.10658" stroke-linecap="round" stroke-linejoin="round"/>
<path d="M150.916 30.2361C150.943 30.2697 152.283 27.7402 152.351 27.5695C153.144 25.594 153.674 21.2346 152.108 19.5809C150.989 18.3889 149.287 18.7414 148.408 20.1013C147.529 21.4612 147.629 23.5934 148.017 25.1575C148.483 26.9959 150.916 30.2333 150.916 30.2361Z" stroke="black" stroke-width="1.10658" stroke-linecap="round" stroke-linejoin="round"/>
</g>
<path d="M75.7717 46.533H153.051L143.049 110.442H65.7702L75.7717 46.533Z" fill="white" stroke="#263238" stroke-width="1.10658" stroke-linecap="round" stroke-linejoin="round"/>
<path d="M151.507 46.533L146.698 77.2676L142.258 105.643L141.506 110.445H64.2291L71.6963 62.7286L74.2307 46.533H151.507Z" fill="#263238" stroke="#263238" stroke-width="1.10658" stroke-linecap="round" stroke-linejoin="round"/>
<path d="M76.3382 48.536H148.769L139.394 108.438H66.963L76.3382 48.536Z" fill="#0B71BB" stroke="#263238" stroke-width="1.10658" stroke-linecap="round" stroke-linejoin="round"/>
<path d="M67.6953 103.757L66.9622 108.441H139.393L140.126 103.757H67.6953Z" fill="#BFBFBF" stroke="#263238" stroke-width="1.10658" stroke-linecap="round" stroke-linejoin="round"/>
<path d="M146.621 48.5367L137.246 108.439H139.392L148.767 48.5367H146.621Z" fill="#BFBFBF" stroke="#263238" stroke-width="1.10658" stroke-linecap="round" stroke-linejoin="round"/>
<path d="M145.364 70.308L147.187 58.6538H145.043L143.218 70.308H145.364Z" fill="#A1A1A1" stroke="#263238" stroke-width="1.10658" stroke-linecap="round" stroke-linejoin="round"/>
<path d="M141.871 106.213H47.0121V110.443H141.871V106.213Z" fill="white" stroke="#263238" stroke-width="1.10658" stroke-linecap="round" stroke-linejoin="round"/>
<path d="M60.5343 106.212H13.9738V110.443H60.5343V106.212Z" fill="#263238" stroke="#263238" stroke-width="1.10658" stroke-linecap="round" stroke-linejoin="round"/>
<path d="M75.6733 52.7683H148.104L148.767 48.5375H76.336L75.6733 52.7683Z" fill="#BFBFBF" stroke="#263238" stroke-width="1.10658" stroke-linecap="round" stroke-linejoin="round"/>
<path d="M80.2329 51.4503H114.733L115.049 49.4336H80.5484L80.2329 51.4503Z" fill="white" stroke="#263238" stroke-width="1.10658" stroke-linecap="round" stroke-linejoin="round"/>
<path opacity="0.2" d="M78.5397 71.8944H105.294L101.832 94.022H75.078L78.5397 71.8944Z" fill="black"/>
<path d="M76.887 69.8498H103.644L100.182 91.9746H73.4253L76.887 69.8498Z" fill="white" stroke="#263238" stroke-width="1.10658" stroke-linecap="round" stroke-linejoin="round"/>
<path d="M103.24 72.4277L103.646 69.8506H76.8892L76.4862 72.4277H103.24Z" fill="#263238" stroke="#263238" stroke-width="1.10658" stroke-linecap="round" stroke-linejoin="round"/>
<path d="M102.16 71.1945C102.161 71.3456 102.122 71.4936 102.049 71.6195C101.977 71.7455 101.873 71.8437 101.752 71.9019C101.631 71.96 101.498 71.9753 101.369 71.946C101.24 71.9166 101.122 71.8438 101.029 71.7369C100.936 71.63 100.873 71.4938 100.847 71.3455C100.822 71.1972 100.835 71.0435 100.886 70.9039C100.936 70.7643 101.021 70.6451 101.131 70.5615C101.24 70.4778 101.369 70.4335 101.5 70.434C101.675 70.434 101.843 70.5141 101.967 70.6567C102.091 70.7994 102.16 70.9928 102.16 71.1945Z" fill="white" stroke="#263238" stroke-width="1.10658" stroke-linecap="round" stroke-linejoin="round"/>
<path d="M87.2634 74.8832C88.5646 75.1014 88.9748 76.3018 88.6811 78.0087L88.6228 78.3529H87.4722L87.5474 77.9163C87.7392 76.7971 87.4649 76.1004 86.5764 76.1004C85.6879 76.1004 85.1975 76.7915 85.0058 77.9163C84.5203 80.7676 88.2174 80.7872 87.6057 84.352C87.3144 86.0589 86.4744 87.2761 85.098 87.4943L84.9329 88.4569H83.9255L84.0906 87.4943C82.7578 87.2761 82.3476 86.0757 82.634 84.352L82.7676 83.5714H83.9182L83.7701 84.4416C83.5735 85.586 83.8721 86.2408 84.7557 86.2408C85.6394 86.2408 86.1589 85.586 86.3531 84.4416C86.8386 81.6099 83.1584 81.5735 83.7701 78.0059C84.0663 76.2627 84.8771 75.1182 86.2414 74.8804L86.4162 73.8647H87.4236L87.2634 74.8832Z" fill="#263238"/>
<path d="M89.7643 85.7818L89.4633 87.5446H88.2811L88.5821 85.7818H89.7643ZM89.4172 80.8096L90.4392 74.8356H91.6675L90.6455 80.8096L89.8177 84.7269H88.9147L89.4172 80.8096Z" fill="#263238"/>
<path d="M92.2552 85.7818L91.9542 87.5446H90.772L91.073 85.7818H92.2552ZM91.9105 80.8096L92.9301 74.8356H94.1609L93.1389 80.8096L92.3159 84.7269H91.4007L91.9105 80.8096Z" fill="#263238"/>
<path opacity="0.2" d="M146.695 77.2665L142.255 105.642H114.544L118.987 77.2665H146.695Z" fill="black"/>
<path d="M116.952 75.3664H151.263L146.823 103.742H112.512L116.952 75.3664Z" fill="white" stroke="#263238" stroke-width="1.10658" stroke-linecap="round" stroke-linejoin="round"/>
<path d="M150.744 78.6734L151.261 75.366H116.95L116.433 78.6734H150.744Z" fill="#263238" stroke="#263238" stroke-width="1.10658" stroke-linecap="round" stroke-linejoin="round"/>
<path d="M149.36 77.0954C149.36 77.2892 149.31 77.4786 149.216 77.6396C149.123 77.8007 148.99 77.9261 148.835 78.0001C148.679 78.0742 148.508 78.0934 148.343 78.0554C148.178 78.0174 148.027 77.9239 147.908 77.7867C147.79 77.6495 147.709 77.4748 147.676 77.2847C147.644 77.0946 147.661 76.8977 147.726 76.7189C147.79 76.54 147.9 76.3873 148.04 76.2801C148.18 76.1729 148.344 76.1159 148.512 76.1165C148.624 76.1165 148.734 76.1418 148.837 76.191C148.94 76.2403 149.034 76.3124 149.112 76.4034C149.191 76.4943 149.253 76.6023 149.296 76.721C149.338 76.8398 149.36 76.967 149.36 77.0954Z" fill="white" stroke="#263238" stroke-width="1.10658" stroke-linecap="round" stroke-linejoin="round"/>
<path d="M120.483 89.33C120.753 88.902 121.108 88.5547 121.518 88.3171C121.928 88.0795 122.381 87.9586 122.84 87.9645C124.678 87.9645 125.229 89.5175 124.826 91.8819L124.275 95.1081C123.845 97.6264 122.522 99.2717 120.337 99.2717C118.153 99.2717 117.424 97.6264 117.844 95.1081L118.034 93.9889H119.524L119.315 95.2144C119.073 96.6974 119.439 97.59 120.583 97.59C121.726 97.59 122.411 96.6974 122.663 95.2144L123.209 92.0022C123.464 90.5192 123.085 89.6238 121.942 89.6238C121.066 89.6238 120.376 90.1834 120.027 91.3894L119.964 91.7672H118.473L120.427 82.6117H126.054L125.773 84.2598H121.573L120.483 89.33Z" fill="#263238"/>
<path d="M127.135 86.5999C127.565 84.0815 128.927 82.4586 131.109 82.4586C133.291 82.4586 134.119 84.0843 133.69 86.5999L132.233 95.0978C131.803 97.6161 130.439 99.2614 128.235 99.2614C126.031 99.2614 125.249 97.6161 125.681 95.0978L127.135 86.5999ZM127.235 95.2153C126.992 96.6983 127.38 97.5909 128.524 97.5909C129.667 97.5909 130.371 96.6983 130.624 95.2153L132.121 86.5075C132.379 84.9993 132 84.1067 130.835 84.1067C129.67 84.1067 128.987 84.9993 128.73 86.5075L127.235 95.2153Z" fill="#263238"/>
<path d="M136.856 84.0491L136.492 86.2456C136.378 86.9228 136.024 87.3649 135.439 87.3649C134.854 87.3649 134.652 86.9172 134.769 86.2456L135.145 84.0491C135.259 83.3832 135.611 82.9299 136.199 82.9299C136.786 82.9299 136.978 83.3832 136.856 84.0491ZM139.041 82.9662L135.47 89.9252H135.065L138.629 82.9662H139.041ZM135.575 84.0183L135.189 86.2848C135.123 86.6626 135.189 86.9116 135.512 86.9116C135.834 86.9116 135.997 86.6626 136.051 86.2848L136.439 84.0183C136.502 83.6406 136.417 83.3832 136.116 83.3832C135.815 83.3832 135.633 83.6406 135.567 84.0183H135.575ZM139.386 86.643L139.012 88.8311C138.898 89.5055 138.553 89.9504 137.959 89.9504C137.364 89.9504 137.172 89.5027 137.289 88.8311L137.662 86.643C137.777 85.977 138.129 85.5237 138.714 85.5237C139.299 85.5237 139.493 85.977 139.379 86.643H139.386ZM138.097 86.615L137.706 88.8703C137.641 89.248 137.726 89.5055 138.027 89.5055C138.328 89.5055 138.512 89.248 138.568 88.8703L138.954 86.615C139.017 86.2372 138.932 85.9882 138.629 85.9882C138.325 85.9882 138.155 86.2372 138.09 86.615H138.097Z" fill="#263238"/>
<path d="M133.276 92.513C133.519 91.1559 134.247 90.2745 135.42 90.2745C136.592 90.2745 137.041 91.1475 136.808 92.513L136.024 97.1047C135.781 98.4506 135.053 99.3432 133.871 99.3432C132.689 99.3432 132.261 98.4562 132.492 97.1047L133.276 92.513ZM133.329 97.1579C133.191 97.9693 133.407 98.4366 134.024 98.4366C134.64 98.4366 135.017 97.9693 135.157 97.1579L135.958 92.4626C136.097 91.6652 135.893 91.1811 135.264 91.1811C134.635 91.1811 134.269 91.6652 134.133 92.4626L133.329 97.1579Z" fill="#263238"/>
<path d="M139.915 94.5016L139.762 95.4026H137.99L137.332 99.2473H136.472L137.992 90.366H141.051L140.898 91.267H138.696L138.143 94.5016H139.915Z" fill="#263238"/>
<path d="M143.657 94.502L143.504 95.403H141.731L141.074 99.2477H140.217L141.734 90.3664H144.793L144.64 91.2674H142.438L141.887 94.502H143.657Z" fill="#263238"/>
<path opacity="0.2" d="M93.228 46.5351L90.6936 62.7306H71.6931L74.2275 46.5351H93.228Z" fill="black"/>
<path d="M57.3589 30.0233H93.8937L89.1672 60.2403H52.63L57.3589 30.0233Z" fill="white" stroke="#263238" stroke-width="1.10658" stroke-linecap="round" stroke-linejoin="round"/>
<path d="M78.2966 30.0232L76.1822 32.978L76.0317 30.0232H75.2767L74.0338 32.5975L73.4366 30.0232H72.6064L71.8247 32.715L70.6401 30.0232H70.0259L69.6448 33.3278L67.3289 30.0428L67.5716 34.4051L64.7047 31.7581L65.6903 35.9105L62.3791 34.005L64.0711 37.788L60.4443 36.6939L62.7772 39.9622L58.9732 39.7215L61.8547 42.349L58.0216 42.9729L61.3425 44.8589L57.6259 46.3223L61.2624 47.394L57.8031 49.6409L61.612 49.8563L58.546 52.8L62.3791 52.1536L59.8253 55.682L63.537 54.1962L61.5925 58.1724L65.0421 55.9059L63.7798 60.1786L66.8312 57.2154L66.4671 60.2402H67.29L68.8388 58.0772L68.9505 60.2402H70.1254L70.9896 58.455L71.4023 60.2402H72.6452L73.1963 58.3374L74.0362 60.2402H75.0873L75.3786 57.7275L77.1508 60.2402H77.6508L77.4493 56.6474L80.3187 59.2944L79.3307 55.142L82.6443 57.0503L80.9499 53.2644L84.5791 54.3613L82.2462 51.0931L86.0502 51.3337L83.1662 48.7035L87.0018 48.0823L83.6785 46.1964L87.3951 44.733L83.761 43.6613L87.2178 41.4144L83.4114 41.1961L86.475 38.2525L82.6419 38.8989L85.1957 35.3704L81.484 36.859L83.4284 32.8801L79.9813 35.1494L81.2436 30.8738L78.1922 33.8371L78.651 30.0232H78.2966Z" fill="white" stroke="#263238" stroke-width="1.10658" stroke-linecap="round" stroke-linejoin="round"/>
<path d="M93.3414 33.5461L93.8924 30.0232H57.3577L56.8066 33.5461H93.3414Z" fill="#263238" stroke="#263238" stroke-width="1.10658" stroke-linecap="round" stroke-linejoin="round"/>
<path d="M91.8714 31.8652C91.8718 32.0718 91.8191 32.2739 91.7198 32.4459C91.6205 32.6179 91.4791 32.752 91.3135 32.8314C91.148 32.9107 90.9657 32.9316 90.7898 32.8914C90.614 32.8512 90.4524 32.7518 90.3256 32.6057C90.1988 32.4596 90.1125 32.2735 90.0777 32.0709C90.0428 31.8682 90.061 31.6582 90.1298 31.4675C90.1986 31.2767 90.3151 31.1138 90.4643 30.9994C90.6136 30.8849 90.789 30.8242 90.9683 30.8247C91.2078 30.8247 91.4375 30.9343 91.6069 31.1295C91.7762 31.3246 91.8714 31.5893 91.8714 31.8652Z" fill="white" stroke="#263238" stroke-width="1.10658" stroke-linecap="round" stroke-linejoin="round"/>
<path d="M67.4075 40.9239C68.6844 40.9239 69.0679 41.6262 68.83 43.0169L68.7548 43.4618C68.5824 44.4607 68.2304 45.0819 67.473 45.3393C68.2256 45.5968 68.4052 46.3243 68.228 47.3652L68.0896 48.1598C67.8469 49.5785 67.1186 50.376 65.8393 50.376H63.9531L65.5674 40.9239H67.4075ZM66.0019 49.4162C66.6695 49.4162 67.0433 49.0105 67.1938 48.1347L67.3371 47.2952C67.5167 46.2431 67.2133 45.8962 66.4292 45.8962H65.6329L65.0309 49.419L66.0019 49.4162ZM66.4996 44.9392C67.2278 44.9392 67.6454 44.6594 67.8153 43.6828L67.91 43.1232C68.0532 42.2838 67.876 41.8808 67.2206 41.8808H66.3175L65.7956 44.9308L66.4996 44.9392Z" fill="#263238"/>
<path d="M69.7919 48.1451C69.6463 48.9845 69.8526 49.5106 70.5202 49.5106C71.1878 49.5106 71.5568 48.9957 71.7024 48.1451L72.9356 40.9231H73.7925L72.5642 48.0919C72.3214 49.5245 71.5932 50.4815 70.3187 50.4815C69.0442 50.4815 68.6558 49.5245 68.8986 48.0919L70.1245 40.9231H71.0276L69.7919 48.1451Z" fill="#263238"/>
<path d="M75.1103 46.987L74.4136 40.9235H75.3628L75.8483 45.5684L77.9311 40.9235H78.7978L76.0158 46.987L75.4356 50.3756H74.535L75.1103 46.987Z" fill="#263238"/>
<path d="M78.9462 49.0672L78.7229 50.3767H77.8441L78.0674 49.0672H78.9462ZM78.6889 45.3681L79.4463 40.9247H80.3591L79.5992 45.3681L78.9851 48.2837H78.3053L78.6889 45.3681Z" fill="#263238"/>
<path opacity="0.2" d="M139.029 46.5355L136.475 62.8513H109.719L112.273 46.5355H139.029Z" fill="black"/>
<path d="M111.664 38.6779H138.42L134.956 60.8027H108.202L111.664 38.6779Z" fill="white" stroke="#263238" stroke-width="1.10658" stroke-linecap="round" stroke-linejoin="round"/>
<path d="M138.016 41.2542L138.421 38.6772H111.664L111.261 41.2542H138.016Z" fill="#263238" stroke="#263238" stroke-width="1.10658" stroke-linecap="round" stroke-linejoin="round"/>
<path d="M136.278 40.7863C136.644 40.7863 136.941 40.4445 136.941 40.023C136.941 39.6015 136.644 39.2598 136.278 39.2598C135.912 39.2598 135.615 39.6015 135.615 40.023C135.615 40.4445 135.912 40.7863 136.278 40.7863Z" fill="white" stroke="#263238" stroke-width="1.10658" stroke-linecap="round" stroke-linejoin="round"/>
<path d="M119.361 46.9002L118.846 49.9026H118.2L119.341 43.229H119.987L119.475 46.2314H120.897L121.41 43.229H122.055L120.914 49.9026H120.269L120.783 46.9002H119.361Z" fill="#263238"/>
<path d="M122.394 44.8413C122.566 43.82 123.122 43.1624 124.003 43.1624C124.884 43.1624 125.217 43.82 125.047 44.8413L124.457 48.2914C124.285 49.3015 123.729 49.9703 122.84 49.9703C121.952 49.9703 121.627 49.3015 121.801 48.2914L122.394 44.8413ZM122.432 48.3306C122.328 48.9406 122.491 49.2931 122.954 49.2931C123.418 49.2931 123.702 48.9406 123.806 48.3306L124.409 44.8021C124.513 44.2006 124.36 43.8396 123.887 43.8396C123.413 43.8396 123.139 44.2006 123.037 44.8021L122.432 48.3306Z" fill="#263238"/>
<path d="M125.627 49.9022L126.651 43.9058H125.586L125.702 43.2287H128.482L128.365 43.9058H127.3L126.273 49.9022H125.627Z" fill="#263238"/>
<path d="M117.618 52.2444L117.589 52.4262H116.977L117.014 52.2052C117.116 51.6064 116.977 51.2538 116.516 51.2538C116.055 51.2538 115.788 51.6064 115.691 52.1968C115.436 53.6938 117.356 53.8365 117.033 55.714C116.861 56.7242 116.327 57.3929 115.443 57.3929C114.559 57.3929 114.256 56.7325 114.428 55.714L114.494 55.3335H115.098L115.026 55.7532C114.924 56.3548 115.079 56.7074 115.54 56.7074C116.001 56.7074 116.281 56.3548 116.383 55.7532C116.637 54.2646 114.725 54.1219 115.047 52.2444C115.222 51.2146 115.747 50.5655 116.613 50.5655C117.48 50.5655 117.803 51.2342 117.618 52.2444Z" fill="#263238"/>
<path d="M118.203 55.9717L117.749 57.3064H117.155L119.405 50.6329H120.339L120.306 57.3064H119.662V55.9605L118.203 55.9717ZM118.395 55.3337H119.686V51.4807L118.395 55.3337Z" fill="#263238"/>
<path d="M120.812 57.306L121.953 50.6325H122.599L121.575 56.6288H123.228L123.111 57.306H120.812Z" fill="#263238"/>
<path d="M126.295 53.5977L126.181 54.2637H124.766L124.353 56.6393H126.089L125.98 57.3052H123.596L124.737 50.6317H127.121L127.004 51.306H125.268L124.877 53.5865L126.295 53.5977Z" fill="#263238"/>
<path d="M127.364 56.3907L127.207 57.3169H126.585L126.743 56.3907H127.364ZM127.182 53.7801L127.719 50.6434H128.364L127.828 53.7801L127.393 55.8395H126.908L127.182 53.7801Z" fill="#263238"/>
<path d="M128.67 56.3915L128.512 57.3177H127.893L128.051 56.3915H128.67ZM128.483 53.7808L129.02 50.6442H129.666L129.129 53.7808L128.695 55.8403H128.209L128.483 53.7808Z" fill="#263238"/>
</svg>
