<svg width="115" height="30" viewBox="0 0 115 30" fill="none" xmlns="http://www.w3.org/2000/svg">
<path d="M61.3933 6.71785C58.3758 6.71785 56.2402 7.40937 55.085 8.44664L55.3498 7.00418H51.5293L49.1599 20.0376H52.9804L54.4088 12.9064C54.8596 10.4483 56.7784 8.50337 59.7311 8.11979C62.7824 7.72001 64.6588 9.62978 64.2221 12.0528L62.7598 20.0403H66.6226L68.0961 11.9474C68.6596 8.84102 65.6195 6.71785 61.3933 6.71785Z" fill="white"/>
<path d="M86.4031 3.0407L83.5857 18.4809L83.2983 20.0503H75.7898L75.801 20.0368C71.2424 19.9477 67.7346 17.341 68.1882 13.4512C68.6672 9.33456 73.0596 6.79541 77.3421 6.85214H80.137L79.8695 8.15143H77.9733C74.0401 8.0866 72.0425 10.9796 72.065 14.1941C72.0904 16.7548 74.1781 18.67 76.9674 18.7835H79.7821L82.6192 3.07312L86.4031 3.0407Z" fill="white"/>
<path d="M83.5974 18.4812L83.2987 20.0507L83.5861 18.4812H83.5974Z" fill="white"/>
<path d="M21.7786 3.03602L18.6822 20.0376L22.4633 20.0024L25.5596 3.0009L21.7786 3.03602Z" fill="white"/>
<path d="M3.09068 3.53238L0 20.0396L3.78666 20.0045L6.16733 6.32816L3.09068 3.53238Z" fill="white"/>
<path d="M114.71 8.2492L114.998 6.9229C113.966 6.89859 109.348 6.90129 108.219 6.90129C105.204 6.90129 103.35 8.95152 102.93 11.3583L101.415 20.0752H105.311L106.959 11.1881C107.382 8.75973 108.512 8.37076 110.828 8.27081C112.011 8.22219 113.516 8.22219 114.71 8.2492Z" fill="white"/>
<path d="M92.6889 12.7061H98.7013C99.1464 11.0773 98.4956 8.19507 94.6864 8.17616C91.7731 8.16265 88.9895 10.3642 88.7444 14.1999C88.581 16.7607 90.1897 18.7407 93.1452 18.7407H97.2531L97.0192 20.0346H92.3338C88.209 20.1129 84.0054 17.309 84.707 13.449C85.3719 9.79149 89.5699 6.82285 94.6554 6.86066C99.6733 6.89848 102.866 9.15941 102.28 13.5624C102.257 13.7326 102.254 13.7758 102.206 14.0054H92.469L92.6889 12.7061Z" fill="white"/>
<path d="M40.2868 12.7092H46.2992C46.7444 11.0803 46.0936 8.19812 42.2843 8.17921C39.3711 8.16571 36.5875 10.3672 36.3424 14.2029C36.1789 16.7637 37.7878 18.7437 40.7433 18.7437H44.8512L44.6173 20.0376H39.9319C35.8071 20.1159 31.6034 17.3121 32.3049 13.452C32.9698 9.79454 37.1679 6.8259 42.2534 6.86372C47.2713 6.90153 50.4635 9.16246 49.8775 13.5655C49.8549 13.7356 49.8494 13.7789 49.8043 14.0085H40.0671L40.2868 12.7092Z" fill="white"/>
<path d="M18.8013 17.5336C18.1673 19.5055 14.7582 20.5725 9.89239 20.1025C8.04977 19.9188 6.09162 19.5298 4.81531 18.8194C4.81531 18.8194 5.15341 16.8259 5.1675 16.8151C6.06063 17.4337 8.57939 18.4467 10.3234 18.6979C13.3465 19.1328 14.9272 18.3899 14.5103 17.2608C14.0707 16.0642 10.115 14.5299 9.42754 14.1868C6.29451 12.6147 5.76757 11.0642 6.24936 9.59473C6.90865 7.63364 11.2955 6.35866 15.626 6.97994C17.5503 7.25547 18.9252 7.82813 20.0804 8.60878L18.7308 9.90807C18.0152 9.38133 16.5614 8.48182 14.9272 8.25492C12.3577 7.88755 10.1206 8.1955 9.97411 9.55692C9.8276 10.9021 13.4846 12.1879 15.2314 13.0955C18.0911 14.5731 19.283 16.0777 18.8013 17.5336Z" fill="white"/>
<path d="M27.746 11.834C26.8726 12.385 26.9599 13.5277 27.7122 14.1652L33.9388 20.0376H29.2195L25.0186 16.2748C23.5648 14.9728 23.841 12.6552 25.5794 11.5774L33.1611 7.09333L35.446 7.12575L27.746 11.834Z" fill="white"/>
<path d="M6.94227 1.537L6.48594 4.33277L1.71303 0H5.57026C6.42114 0 7.07469 0.729332 6.94227 1.537Z" fill="#DD0613"/>
<path d="M23.31 27.9227L23.5861 27.6174C24.2144 28.1739 24.792 28.4305 25.6344 28.4305C26.4909 28.4305 27.077 27.9686 27.077 27.3284C27.077 26.7503 26.7586 26.4127 25.4626 26.1642C24.0905 25.8994 23.5382 25.4537 23.5382 24.6083C23.5382 23.7952 24.3131 23.1685 25.3725 23.1685C26.2036 23.1685 26.7529 23.3873 27.3305 23.833L27.06 24.1544C26.5219 23.7087 25.9838 23.5359 25.3555 23.5359C24.5159 23.5359 23.9608 23.9978 23.9608 24.5839C23.9608 25.162 24.2708 25.5132 25.626 25.7806C26.9474 26.0399 27.5025 26.491 27.5025 27.3068C27.5025 28.1901 26.7107 28.8006 25.6091 28.8006C24.699 28.7979 23.9974 28.5088 23.31 27.9227Z" fill="white"/>
<path d="M28.3079 27.5471C28.3079 26.7178 29.0517 26.2478 30.128 26.2478C30.7056 26.2478 31.1057 26.3181 31.5058 26.4207V26.2478C31.5058 25.4429 30.9929 25.0269 30.1364 25.0269C29.6292 25.0269 29.2151 25.1592 28.8319 25.3483L28.6854 25.0107C29.1418 24.8081 29.5899 24.6676 30.1618 24.6676C30.7253 24.6676 31.1732 24.8162 31.4747 25.1052C31.7508 25.3699 31.9002 25.74 31.9002 26.2316V28.7195H31.5085V28.055C31.2239 28.4385 30.7084 28.814 29.9167 28.814C29.139 28.814 28.3079 28.3926 28.3079 27.5471ZM31.5141 27.2257V26.7719C31.162 26.6854 30.7 26.5909 30.1027 26.5909C29.2208 26.5909 28.7333 26.9664 28.7333 27.5363C28.7333 28.1144 29.3053 28.452 29.9392 28.452C30.7873 28.4547 31.5141 27.955 31.5141 27.2257Z" fill="white"/>
<path d="M33.173 24.7322H33.5731V25.4751C33.8492 25.0051 34.3141 24.6377 35.0748 24.6377C36.1257 24.6377 36.74 25.3265 36.74 26.2801V28.7193H36.3398V26.3503C36.3398 25.5291 35.858 24.9889 35.0184 24.9889C34.2013 24.9889 33.5758 25.5831 33.5758 26.4124V28.7193H33.1758V24.7322H33.173Z" fill="white"/>
<path d="M38.0225 23.1685H38.5183V23.6925H38.0225V23.1685ZM38.0704 24.7325H38.4704V28.7222H38.0704V24.7325Z" fill="white"/>
<path d="M40.1049 27.6958V25.0837H39.502V24.7325H40.1049V23.4576H40.505V24.7325H41.9644V25.0837H40.505V27.658C40.505 28.2279 40.8571 28.4332 41.3361 28.4332C41.5389 28.4332 41.7109 28.3954 41.9476 28.2928V28.652C41.7363 28.7466 41.5305 28.7925 41.2713 28.7925C40.6261 28.7925 40.1049 28.4548 40.1049 27.6958Z" fill="white"/>
<path d="M42.6435 27.5471C42.6435 26.7178 43.3873 26.2478 44.4636 26.2478C45.0411 26.2478 45.4413 26.3181 45.8413 26.4207V26.2478C45.8413 25.4429 45.3286 25.0269 44.4721 25.0269C43.9649 25.0269 43.5507 25.1592 43.1675 25.3483L43.021 25.0107C43.4774 24.8081 43.9255 24.6676 44.4974 24.6676C45.0609 24.6676 45.5089 24.8162 45.8104 25.1052C46.0865 25.3699 46.2358 25.74 46.2358 26.2316V28.7195H45.8441V28.055C45.5595 28.4385 45.044 28.814 44.2523 28.814C43.4774 28.814 42.6435 28.3926 42.6435 27.5471ZM45.8497 27.2257V26.7719C45.4976 26.6854 45.0356 26.5909 44.4382 26.5909C43.5564 26.5909 43.069 26.9664 43.069 27.5363C43.069 28.1144 43.6409 28.452 44.2748 28.452C45.1229 28.4547 45.8497 27.955 45.8497 27.2257Z" fill="white"/>
<path d="M47.5125 24.7333H47.9126V25.8678C48.2394 25.1573 48.9325 24.6387 49.7552 24.6711V25.0925H49.7157C48.7521 25.0925 47.9126 25.7894 47.9126 27.086V28.7203H47.5125V24.7333Z" fill="white"/>
<path d="M50.2958 29.8245L50.4337 29.4895C50.6535 29.5922 50.8338 29.6381 51.1437 29.6381C51.5776 29.6381 51.8622 29.395 52.1721 28.7008L50.1746 24.7354H50.6394L52.3694 28.301L53.8711 24.7354H54.3106L52.5075 28.8655C52.1412 29.7029 51.7157 30.0001 51.1212 30.0001C50.8 29.9947 50.5719 29.9406 50.2958 29.8245Z" fill="white"/>
<path d="M57.1763 24.7326H57.6243L58.8809 28.2361L60.1374 24.7164H60.4559L61.7125 28.2361L62.9691 24.7326H63.403L61.8787 28.7521H61.535L60.2952 25.335L59.0472 28.7521H58.7063L57.1763 24.7326Z" fill="white"/>
<path d="M63.8959 27.5471C63.8959 26.7178 64.6397 26.2478 65.716 26.2478C66.2936 26.2478 66.6937 26.3181 67.0938 26.4207V26.2478C67.0938 25.4429 66.5809 25.0269 65.7244 25.0269C65.2172 25.0269 64.8031 25.1592 64.4199 25.3483L64.2734 25.0107C64.7298 24.8081 65.1779 24.6676 65.7498 24.6676C66.3133 24.6676 66.7612 24.8162 67.0627 25.1052C67.3388 25.3699 67.4882 25.74 67.4882 26.2316V28.7195H67.0965V28.055C66.8119 28.4385 66.2964 28.814 65.5047 28.814C64.7299 28.814 63.8959 28.3926 63.8959 27.5471ZM67.1021 27.2257V26.7719C66.75 26.6854 66.288 26.5909 65.6907 26.5909C64.8088 26.5909 64.3213 26.9664 64.3213 27.5363C64.3213 28.1144 64.8933 28.452 65.5272 28.452C66.3753 28.4547 67.1021 27.955 67.1021 27.2257Z" fill="white"/>
<path d="M68.761 24.7333H69.1611V25.8678C69.4879 25.1573 70.181 24.6387 71.0037 24.6711V25.0925H70.9642C70.0007 25.0925 69.1611 25.7894 69.1611 27.086V28.7203H68.761V24.7333Z" fill="white"/>
<path d="M71.3762 26.7176C71.3762 25.5615 72.2243 24.6377 73.3513 24.6377C74.5177 24.6377 75.2587 25.5453 75.2587 26.7258C75.2587 26.796 75.2587 26.8203 75.2502 26.8824H71.7988C71.8721 27.8765 72.6159 28.4545 73.4301 28.4545C74.0753 28.4545 74.5148 28.1817 74.8585 27.8279L75.1346 28.0629C74.712 28.5005 74.2134 28.8138 73.4132 28.8138C72.32 28.8138 71.3762 27.9764 71.3762 26.7176ZM74.8248 26.5394C74.7685 25.7344 74.2866 24.9916 73.3315 24.9916C72.506 24.9916 71.8721 25.6561 71.7961 26.5394H74.8248Z" fill="white"/>
</svg>
