<svg width="17" height="17" viewBox="0 0 17 17" fill="none" xmlns="http://www.w3.org/2000/svg">
<path fill-rule="evenodd" clip-rule="evenodd" d="M3.83537 2.38652C2.42835 2.92749 1.30769 4.26754 1.30769 6.04303C1.30769 7.4475 1.9408 8.79389 2.95467 10.0937C3.96874 11.3937 5.32187 12.594 6.67347 13.7001C7.22383 14.1505 7.59143 14.4499 7.89764 14.6435C8.18893 14.8276 8.3572 14.871 8.5 14.871C8.6428 14.871 8.81108 14.8276 9.10237 14.6435C9.40858 14.4499 9.77618 14.1505 10.3265 13.7001C11.6781 12.594 13.0313 11.3937 14.0453 10.0937C15.0592 8.79389 15.6923 7.4475 15.6923 6.04303C15.6923 4.26754 14.5717 2.92749 13.1646 2.38652C11.7704 1.85047 10.1301 2.1082 9.01938 3.52866C8.89567 3.68687 8.70365 3.77967 8.5 3.77967C8.29636 3.77967 8.10434 3.68687 7.98063 3.52866C6.8699 2.1082 5.2296 1.85047 3.83537 2.38652ZM8.50001 2.17677C7.02089 0.763346 5.02714 0.554068 3.35694 1.19622C1.49473 1.9122 0 3.69593 0 6.04303C0 7.83507 0.808207 9.45053 1.91499 10.8694C3.02159 12.2881 4.46847 13.5633 5.83428 14.681L5.86523 14.7063C6.37646 15.1247 6.8057 15.476 7.18774 15.7176C7.59239 15.9734 8.00956 16.15 8.5 16.15C8.99046 16.15 9.40761 15.9734 9.81227 15.7176C10.1943 15.476 10.6235 15.1247 11.1348 14.7063L11.1657 14.681C12.5315 13.5633 13.9784 12.2881 15.085 10.8694C16.1918 9.45053 17 7.83507 17 6.04303C17 3.69593 15.5053 1.9122 13.6431 1.19622C11.9729 0.554068 9.97912 0.763346 8.50001 2.17677Z" fill="#717171"/>
</svg>
