<svg width="17" height="18" viewBox="0 0 17 18" fill="none" xmlns="http://www.w3.org/2000/svg">
<path d="M1.54073 2.32218L3.05979 0.999083C3.89874 0.268357 5.17121 0.356091 5.90194 1.19504L7.11122 2.58343C7.61328 3.15985 7.74584 3.97077 7.45346 4.67705L7.31253 5.01747C7.02015 5.72375 7.15271 6.53467 7.65477 7.11109L9.78667 9.55874C10.2887 10.1352 11.0738 10.3778 11.8135 10.1851L12.1701 10.0922C12.9098 9.89951 13.6948 10.1421 14.1969 10.7185L15.8252 12.5879C16.5559 13.4269 16.4682 14.6994 15.6292 15.4301L14.1102 16.7532C12.8517 17.8493 10.943 17.7177 9.84693 16.4593L1.2468 6.5854C0.15071 5.32698 0.282309 3.41827 1.54073 2.32218Z" stroke="#0063A9" stroke-linecap="round"/>
</svg>
